<svg xmlns="http://www.w3.org/2000/svg" version="1.1" width="1024" height="576">
<rect x="0" y="0" width="1024" height="576" fill="#3a4135" />
<g transform="scale(4.000000) translate(0.5 0.5)">
<polygon fill="#fffdc5" fill-opacity="0.501961" points="62,43 119,5 177,24" />
<polygon fill="#ffeaa7" fill-opacity="0.501961" points="57,88 78,26 99,137" />
<polygon fill="#cdae89" fill-opacity="0.501961" points="90,137 164,136 205,67" />
<polygon fill="#ffedba" fill-opacity="0.501961" points="177,80 140,6 180,35" />
<polygon fill="#00000f" fill-opacity="0.501961" points="271,144 161,149 251,-2" />
<polygon fill="#001903" fill-opacity="0.501961" points="-16,150 99,158 6,-16" />
<polygon fill="#f4c391" fill-opacity="0.501961" points="60,54 64,96 115,10" />
<polygon fill="#000110" fill-opacity="0.501961" points="137,26 120,128 96,38" />
<polygon fill="#fbdcb4" fill-opacity="0.501961" points="69,108 148,136 110,138" />
<polygon fill="#e1bc8b" fill-opacity="0.501961" points="186,44 184,110 200,79" />
<polygon fill="#093b13" fill-opacity="0.501961" points="111,-9 4,129 -12,-13" />
<polygon fill="#000b1b" fill-opacity="0.501961" points="243,15 197,21 196,133" />
<polygon fill="#000000" fill-opacity="0.501961" points="130,128 115,120 162,111" />
<polygon fill="#7e9199" fill-opacity="0.501961" points="196,14 161,-16 271,2" />
<polygon fill="#efcaa7" fill-opacity="0.501961" points="178,44 101,17 159,11" />
<polygon fill="#ccb48c" fill-opacity="0.501961" points="175,120 149,136 176,51" />
<polygon fill="#111916" fill-opacity="0.501961" points="185,97 182,79 148,116" />
<polygon fill="#bf9462" fill-opacity="0.501961" points="69,109 60,83 137,117" />
<polygon fill="#000005" fill-opacity="0.501961" points="166,89 167,47 124,27" />
<polygon fill="#000001" fill-opacity="0.501961" points="85,159 170,154 59,121" />
<polygon fill="#000009" fill-opacity="0.501961" points="96,41 84,82 116,112" />
<polygon fill="#000000" fill-opacity="0.501961" points="97,159 185,150 211,108" />
<polygon fill="#000817" fill-opacity="0.501961" points="184,59 200,23 167,-6" />
<polygon fill="#e1be95" fill-opacity="0.501961" points="137,8 80,23 80,54" />
<polygon fill="#121f2f" fill-opacity="0.501961" points="135,112 163,93 119,30" />
<polygon fill="#000001" fill-opacity="0.501961" points="187,128 180,88 170,159" />
<polygon fill="#0c0c1c" fill-opacity="0.501961" points="65,131 55,45 -16,134" />
<polygon fill="#e1cdaa" fill-opacity="0.501961" points="174,122 136,138 99,131" />
<polygon fill="#c9af8a" fill-opacity="0.501961" points="179,68 125,2 175,27" />
<polygon fill="#266a27" fill-opacity="0.501961" points="41,80 18,13 -15,57" />
<polygon fill="#9f6d37" fill-opacity="0.501961" points="91,16 57,78 65,40" />
<polygon fill="#261f10" fill-opacity="0.501961" points="123,128 84,93 94,114" />
<polygon fill="#dcc09a" fill-opacity="0.501961" points="69,107 88,126 75,52" />
<polygon fill="#1b1e28" fill-opacity="0.501961" points="47,13 180,6 89,-16" />
<polygon fill="#000000" fill-opacity="0.501961" points="87,57 111,30 141,30" />
<polygon fill="#c6b28c" fill-opacity="0.501961" points="171,63 177,106 161,129" />
<polygon fill="#ffd486" fill-opacity="0.501961" points="104,109 119,116 134,112" />
<polygon fill="#805e31" fill-opacity="0.501961" points="92,11 134,3 64,38" />
<polygon fill="#fdd18e" fill-opacity="0.501961" points="163,101 146,108 166,89" />
<polygon fill="#7e6c49" fill-opacity="0.501961" points="154,5 175,26 120,6" />
<polygon fill="#c7ab82" fill-opacity="0.501961" points="192,99 194,51 184,65" />
<polygon fill="#917038" fill-opacity="0.501961" points="58,78 65,45 70,104" />
<polygon fill="#151301" fill-opacity="0.501961" points="167,102 157,116 130,123" />
<polygon fill="#bca37d" fill-opacity="0.501961" points="122,132 72,95 76,116" />
<polygon fill="#dbc4a3" fill-opacity="0.501961" points="96,20 157,13 81,44" />
<polygon fill="#000000" fill-opacity="0.501961" points="165,50 144,32 114,31" />
<polygon fill="#ebc487" fill-opacity="0.501961" points="162,99 133,112 145,114" />
<polygon fill="#0d0e20" fill-opacity="0.501961" points="41,31 81,10 60,50" />
<polygon fill="#112128" fill-opacity="0.501961" points="255,31 265,142 160,8" />
<polygon fill="#000002" fill-opacity="0.501961" points="84,76 91,49 111,34" />
</g>
</svg>