<svg xmlns="http://www.w3.org/2000/svg" version="1.1" width="1024" height="576">
<rect x="0" y="0" width="1024" height="576" fill="#54524b" />
<g transform="scale(4.000000) translate(0.5 0.5)">
<polygon fill="#ffe2d4" fill-opacity="0.501961" points="211,66 50,35 152,159" />
<polygon fill="#000000" fill-opacity="0.501961" points="154,-16 271,9 244,159" />
<polygon fill="#000000" fill-opacity="0.501961" points="-16,10 -16,145 103,156" />
<polygon fill="#dfb098" fill-opacity="0.501961" points="82,33 111,159 178,26" />
<polygon fill="#000000" fill-opacity="0.501961" points="187,159 232,-16 271,138" />
<polygon fill="#061106" fill-opacity="0.501961" points="-16,98 129,50 43,159" />
<polygon fill="#e4d0d6" fill-opacity="0.501961" points="52,50 4,37 18,1" />
<polygon fill="#fffffe" fill-opacity="0.501961" points="54,60 64,84 92,31" />
<polygon fill="#a09b9d" fill-opacity="0.501961" points="74,129 191,159 201,53" />
<polygon fill="#d16033" fill-opacity="0.501961" points="165,-16 102,91 88,31" />
<polygon fill="#002c25" fill-opacity="0.501961" points="30,90 112,-16 46,32" />
<polygon fill="#d7e3e3" fill-opacity="0.501961" points="93,107 194,65 122,56" />
<polygon fill="#074a26" fill-opacity="0.501961" points="163,36 129,-16 271,-13" />
<polygon fill="#c8d9c9" fill-opacity="0.501961" points="172,31 188,46 143,47" />
<polygon fill="#000000" fill-opacity="0.501961" points="7,53 -16,18 8,-16" />
<polygon fill="#00020d" fill-opacity="0.501961" points="187,159 240,-16 271,137" />
<polygon fill="#bbb9b8" fill-opacity="0.501961" points="25,-1 4,26 22,61" />
<polygon fill="#57534d" fill-opacity="0.501961" points="158,78 182,112 135,90" />
<polygon fill="#000b10" fill-opacity="0.501961" points="8,159 -16,77 67,71" />
<polygon fill="#02221e" fill-opacity="0.501961" points="114,33 83,10 111,0" />
<polygon fill="#6f675e" fill-opacity="0.501961" points="211,64 193,125 186,48" />
<polygon fill="#70d271" fill-opacity="0.501961" points="201,32 189,35 186,12" />
<polygon fill="#a99b98" fill-opacity="0.501961" points="193,137 107,159 68,113" />
<polygon fill="#c5724f" fill-opacity="0.501961" points="148,45 93,28 94,81" />
<polygon fill="#5b7f75" fill-opacity="0.501961" points="30,61 -4,62 66,18" />
<polygon fill="#00060d" fill-opacity="0.501961" points="173,54 271,58 271,-6" />
<polygon fill="#9e9190" fill-opacity="0.501961" points="26,-16 53,16 103,-12" />
<polygon fill="#26492e" fill-opacity="0.501961" points="105,113 70,68 68,118" />
<polygon fill="#00050e" fill-opacity="0.501961" points="17,159 33,79 95,146" />
<polygon fill="#de4c23" fill-opacity="0.501961" points="64,46 81,30 106,33" />
<polygon fill="#dfe5e1" fill-opacity="0.501961" points="78,71 65,47 53,66" />
<polygon fill="#004330" fill-opacity="0.501961" points="13,-16 40,30 57,22" />
<polygon fill="#320400" fill-opacity="0.501961" points="176,55 152,57 169,44" />
<polygon fill="#213f1f" fill-opacity="0.501961" points="82,59 103,89 64,94" />
<polygon fill="#ce9a7e" fill-opacity="0.501961" points="106,34 105,90 131,26" />
<polygon fill="#000907" fill-opacity="0.501961" points="35,-16 -16,41 -16,0" />
<polygon fill="#75968a" fill-opacity="0.501961" points="28,59 41,63 4,79" />
<polygon fill="#f16d4a" fill-opacity="0.501961" points="144,4 114,7 111,23" />
<polygon fill="#63b364" fill-opacity="0.501961" points="169,12 168,-16 147,7" />
<polygon fill="#310f08" fill-opacity="0.501961" points="155,7 181,31 121,16" />
<polygon fill="#000000" fill-opacity="0.501961" points="167,99 178,103 172,109" />
<polygon fill="#d0c9b6" fill-opacity="0.501961" points="139,40 153,24 160,54" />
<polygon fill="#00070a" fill-opacity="0.501961" points="105,6 121,-9 145,2" />
<polygon fill="#b25430" fill-opacity="0.501961" points="100,68 149,10 137,51" />
<polygon fill="#0e2723" fill-opacity="0.501961" points="19,50 54,48 52,75" />
<polygon fill="#000a0e" fill-opacity="0.501961" points="68,81 69,67 100,90" />
<polygon fill="#618769" fill-opacity="0.501961" points="64,90 74,80 104,106" />
<polygon fill="#c1baaf" fill-opacity="0.501961" points="135,102 177,98 192,63" />
<polygon fill="#d3d7d4" fill-opacity="0.501961" points="51,63 97,60 83,36" />
<polygon fill="#d4dfdd" fill-opacity="0.501961" points="111,111 136,98 93,95" />
</g>
</svg>