<svg xmlns="http://www.w3.org/2000/svg" version="1.1" width="1024" height="576">
<rect x="0" y="0" width="1024" height="576" fill="#aab6ac" />
<g transform="scale(4.000000) translate(0.5 0.5)">
<polygon fill="#ffffff" fill-opacity="0.501961" points="200,159 232,-16 271,132" />
<polygon fill="#495b4f" fill-opacity="0.501961" points="208,159 208,-8 142,-16" />
<polygon fill="#ffffff" fill-opacity="0.501961" points="210,159 210,-16 271,8" />
<polygon fill="#000000" fill-opacity="0.501961" points="157,43 192,33 183,64" />
<polygon fill="#90a394" fill-opacity="0.501961" points="209,159 146,-16 2,-16" />
<polygon fill="#ffffff" fill-opacity="0.501961" points="181,77 140,45 174,58" />
<polygon fill="#fcf9f9" fill-opacity="0.501961" points="255,-15 271,145 217,146" />
<polygon fill="#2c2822" fill-opacity="0.501961" points="202,59 188,32 154,46" />
<polygon fill="#92a396" fill-opacity="0.501961" points="87,1 137,60 231,-16" />
<polygon fill="#91a79a" fill-opacity="0.501961" points="97,91 196,159 196,69" />
<polygon fill="#fff5f7" fill-opacity="0.501961" points="164,71 157,47 180,69" />
<polygon fill="#616f62" fill-opacity="0.501961" points="183,47 202,56 199,108" />
<polygon fill="#eae8e5" fill-opacity="0.501961" points="205,-16 253,159 271,0" />
<polygon fill="#525a54" fill-opacity="0.501961" points="193,124 200,147 200,104" />
<polygon fill="#8fa295" fill-opacity="0.501961" points="158,101 194,52 198,133" />
<polygon fill="#8d9e92" fill-opacity="0.501961" points="101,-10 210,9 197,38" />
<polygon fill="#99b4a4" fill-opacity="0.501961" points="201,139 200,61 211,100" />
<polygon fill="#444a42" fill-opacity="0.501961" points="205,76 198,102 197,53" />
<polygon fill="#342e2b" fill-opacity="0.501961" points="184,33 183,69 163,44" />
<polygon fill="#a4b5a7" fill-opacity="0.501961" points="42,-16 50,104 200,159" />
<polygon fill="#8c9c90" fill-opacity="0.501961" points="201,-14 128,36 173,40" />
<polygon fill="#91aa99" fill-opacity="0.501961" points="209,85 200,59 200,96" />
<polygon fill="#8ea194" fill-opacity="0.501961" points="136,55 197,85 195,139" />
<polygon fill="#809685" fill-opacity="0.501961" points="180,79 186,49 194,53" />
<polygon fill="#e6e5e2" fill-opacity="0.501961" points="208,105 271,58 228,-16" />
<polygon fill="#e2dedd" fill-opacity="0.501961" points="169,54 160,67 152,45" />
<polygon fill="#0f120d" fill-opacity="0.501961" points="179,35 193,51 194,45" />
<polygon fill="#8f9f93" fill-opacity="0.501961" points="127,-16 146,68 170,-1" />
<polygon fill="#eef0ef" fill-opacity="0.501961" points="209,70 271,142 213,159" />
<polygon fill="#f9f5f4" fill-opacity="0.501961" points="164,51 178,64 171,73" />
<polygon fill="#20221e" fill-opacity="0.501961" points="196,56 198,69 200,57" />
<polygon fill="#2f2c29" fill-opacity="0.501961" points="178,58 158,45 190,36" />
<polygon fill="#acbdae" fill-opacity="0.501961" points="152,159 -16,154 4,40" />
<polygon fill="#2d2d2a" fill-opacity="0.501961" points="200,134 200,141 195,147" />
<polygon fill="#95aba0" fill-opacity="0.501961" points="112,159 198,158 196,112" />
<polygon fill="#95b2a5" fill-opacity="0.501961" points="197,155 209,106 211,159" />
<polygon fill="#a5b3a6" fill-opacity="0.501961" points="153,145 85,6 -16,-9" />
<polygon fill="#889b8d" fill-opacity="0.501961" points="162,82 190,91 145,53" />
<polygon fill="#728a79" fill-opacity="0.501961" points="187,28 205,23 209,74" />
<polygon fill="#2a2723" fill-opacity="0.501961" points="178,36 196,47 183,32" />
<polygon fill="#e8e8e5" fill-opacity="0.501961" points="218,-16 271,14 226,138" />
<polygon fill="#363330" fill-opacity="0.501961" points="198,118 198,129 201,128" />
<polygon fill="#7e9385" fill-opacity="0.501961" points="203,92 208,66 199,50" />
<polygon fill="#1e241d" fill-opacity="0.501961" points="193,47 198,51 200,59" />
<polygon fill="#7a8b7d" fill-opacity="0.501961" points="190,79 174,79 193,49" />
<polygon fill="#e1e1dc" fill-opacity="0.501961" points="168,71 152,56 169,55" />
<polygon fill="#000000" fill-opacity="0.501961" points="193,48 186,49 187,46" />
<polygon fill="#363330" fill-opacity="0.501961" points="164,48 181,36 181,65" />
<polygon fill="#88998d" fill-opacity="0.501961" points="141,-16 206,6 172,39" />
<polygon fill="#9aac9f" fill-opacity="0.501961" points="139,24 196,159 101,79" />
</g>
</svg>