<svg xmlns="http://www.w3.org/2000/svg" version="1.1" width="1024" height="576">
<rect x="0" y="0" width="1024" height="576" fill="#8a9589" />
<g transform="scale(4.000000) translate(0.5 0.5)">
<polygon fill="#ffffff" fill-opacity="0.501961" points="117,-2 252,107 271,0" />
<polygon fill="#001905" fill-opacity="0.501961" points="148,10 67,159 -16,134" />
<polygon fill="#09260f" fill-opacity="0.501961" points="108,60 257,105 218,159" />
<polygon fill="#ffffff" fill-opacity="0.501961" points="-16,6 56,-16 92,53" />
<polygon fill="#000000" fill-opacity="0.501961" points="179,159 112,101 106,134" />
<polygon fill="#ffffff" fill-opacity="0.501961" points="45,84 78,43 -16,47" />
<polygon fill="#fcf2f3" fill-opacity="0.501961" points="271,27 131,69 161,-16" />
<polygon fill="#000000" fill-opacity="0.501961" points="56,48 -16,36 45,27" />
<polygon fill="#ffffff" fill-opacity="0.501961" points="207,117 268,115 271,144" />
<polygon fill="#ede6e4" fill-opacity="0.501961" points="258,93 255,-13 181,99" />
<polygon fill="#001a0d" fill-opacity="0.501961" points="-6,70 58,85 102,159" />
<polygon fill="#000400" fill-opacity="0.501961" points="211,117 262,159 132,109" />
<polygon fill="#f1e6e0" fill-opacity="0.501961" points="62,103 104,111 114,78" />
<polygon fill="#ffffff" fill-opacity="0.501961" points="129,81 116,114 160,106" />
<polygon fill="#294135" fill-opacity="0.501961" points="113,118 121,-15 146,25" />
<polygon fill="#ffffff" fill-opacity="0.501961" points="161,122 238,159 149,159" />
<polygon fill="#172e17" fill-opacity="0.501961" points="84,113 67,50 101,56" />
<polygon fill="#fff8f8" fill-opacity="0.501961" points="75,28 -16,28 64,-16" />
<polygon fill="#eee8e4" fill-opacity="0.501961" points="98,88 27,43 -16,62" />
<polygon fill="#000000" fill-opacity="0.501961" points="151,128 102,112 133,159" />
<polygon fill="#f5f0ec" fill-opacity="0.501961" points="156,67 176,16 116,68" />
<polygon fill="#000000" fill-opacity="0.501961" points="41,134 96,118 45,97" />
<polygon fill="#0c3d00" fill-opacity="0.501961" points="77,26 101,-16 65,-16" />
<polygon fill="#002008" fill-opacity="0.501961" points="266,159 247,131 184,132" />
<polygon fill="#001900" fill-opacity="0.501961" points="204,119 206,97 271,102" />
<polygon fill="#213b2a" fill-opacity="0.501961" points="123,93 108,3 95,36" />
<polygon fill="#ece9e2" fill-opacity="0.501961" points="95,87 86,109 109,141" />
<polygon fill="#002006" fill-opacity="0.501961" points="152,108 150,125 194,122" />
<polygon fill="#dcd9d6" fill-opacity="0.501961" points="155,65 133,-16 271,4" />
<polygon fill="#4f7257" fill-opacity="0.501961" points="20,84 75,74 -5,159" />
<polygon fill="#001c02" fill-opacity="0.501961" points="53,46 7,31 52,33" />
<polygon fill="#21371b" fill-opacity="0.501961" points="74,48 66,68 113,105" />
<polygon fill="#061400" fill-opacity="0.501961" points="119,71 136,67 112,107" />
<polygon fill="#9db0a4" fill-opacity="0.501961" points="111,-8 132,-16 126,49" />
<polygon fill="#ffffff" fill-opacity="0.501961" points="161,141 136,115 148,117" />
<polygon fill="#eae2df" fill-opacity="0.501961" points="-16,-5 46,-16 99,59" />
<polygon fill="#f0e9e7" fill-opacity="0.501961" points="43,46 -16,41 -11,82" />
<polygon fill="#d4d6ce" fill-opacity="0.501961" points="160,67 202,98 271,87" />
<polygon fill="#788c75" fill-opacity="0.501961" points="147,87 196,106 206,56" />
<polygon fill="#f3e9e5" fill-opacity="0.501961" points="255,116 214,118 271,147" />
<polygon fill="#ffffff" fill-opacity="0.501961" points="113,83 96,86 114,99" />
<polygon fill="#fffffe" fill-opacity="0.501961" points="107,123 82,121 97,133" />
<polygon fill="#e8e3e0" fill-opacity="0.501961" points="67,76 31,81 70,20" />
<polygon fill="#fcf6f0" fill-opacity="0.501961" points="129,116 118,114 124,87" />
<polygon fill="#001f16" fill-opacity="0.501961" points="115,68 137,48 144,20" />
<polygon fill="#1e442a" fill-opacity="0.501961" points="38,97 25,70 11,68" />
<polygon fill="#fef3f3" fill-opacity="0.501961" points="20,26 3,-16 -15,38" />
<polygon fill="#00100a" fill-opacity="0.501961" points="45,124 101,111 72,133" />
<polygon fill="#8ba289" fill-opacity="0.501961" points="77,76 48,91 97,84" />
<polygon fill="#10260d" fill-opacity="0.501961" points="130,66 166,76 92,80" />
</g>
</svg>