<svg xmlns="http://www.w3.org/2000/svg" version="1.1" width="1024" height="576">
<rect x="0" y="0" width="1024" height="576" fill="#c0a9ac" />
<g transform="scale(4.000000) translate(0.5 0.5)">
<polygon fill="#5f3203" fill-opacity="0.501961" points="87,159 196,103 104,17" />
<polygon fill="#e3d8eb" fill-opacity="0.501961" points="-16,-4 142,-3 2,159" />
<polygon fill="#dcc9e1" fill-opacity="0.501961" points="258,-16 88,-11 258,159" />
<polygon fill="#e6ffff" fill-opacity="0.501961" points="155,128 126,138 134,85" />
<polygon fill="#331200" fill-opacity="0.501961" points="131,73 122,151 96,41" />
<polygon fill="#6e3910" fill-opacity="0.501961" points="180,116 157,137 129,33" />
<polygon fill="#925c33" fill-opacity="0.501961" points="75,89 142,159 97,53" />
<polygon fill="#d8c0d4" fill-opacity="0.501961" points="-16,133 110,159 92,96" />
<polygon fill="#cdb0bd" fill-opacity="0.501961" points="217,159 148,60 271,115" />
<polygon fill="#000000" fill-opacity="0.501961" points="107,52 127,103 126,77" />
<polygon fill="#9b5c1c" fill-opacity="0.501961" points="157,135 104,139 148,158" />
<polygon fill="#d3ac97" fill-opacity="0.501961" points="138,67 113,24 119,64" />
<polygon fill="#3b1b09" fill-opacity="0.501961" points="116,32 95,52 129,35" />
<polygon fill="#9a653d" fill-opacity="0.501961" points="186,83 123,65 135,102" />
<polygon fill="#d3c2ce" fill-opacity="0.501961" points="112,-16 95,32 271,43" />
<polygon fill="#793006" fill-opacity="0.501961" points="119,97 95,88 71,96" />
<polygon fill="#cbdbe8" fill-opacity="0.501961" points="128,103 151,106 139,139" />
<polygon fill="#cdbbc4" fill-opacity="0.501961" points="-16,119 31,159 121,7" />
<polygon fill="#cab3c7" fill-opacity="0.501961" points="271,139 194,62 173,159" />
<polygon fill="#371b09" fill-opacity="0.501961" points="160,104 146,90 163,126" />
<polygon fill="#c3a78d" fill-opacity="0.501961" points="100,35 90,91 54,100" />
<polygon fill="#6a391e" fill-opacity="0.501961" points="148,58 127,34 140,68" />
<polygon fill="#542b14" fill-opacity="0.501961" points="101,46 123,54 94,59" />
<polygon fill="#834520" fill-opacity="0.501961" points="177,124 167,114 184,92" />
<polygon fill="#b28961" fill-opacity="0.501961" points="109,49 104,66 110,69" />
<polygon fill="#bc886d" fill-opacity="0.501961" points="189,86 173,73 161,112" />
<polygon fill="#dfd5c5" fill-opacity="0.501961" points="117,41 129,45 113,50" />
<polygon fill="#ae9786" fill-opacity="0.501961" points="157,148 181,159 141,97" />
<polygon fill="#a17c59" fill-opacity="0.501961" points="79,84 115,94 103,77" />
<polygon fill="#220000" fill-opacity="0.501961" points="134,74 131,71 136,65" />
<polygon fill="#673313" fill-opacity="0.501961" points="117,112 106,155 118,140" />
<polygon fill="#140500" fill-opacity="0.501961" points="128,78 111,54 118,94" />
<polygon fill="#b28151" fill-opacity="0.501961" points="96,131 96,105 121,159" />
<polygon fill="#c6a6af" fill-opacity="0.501961" points="98,104 68,97 94,156" />
<polygon fill="#d3c4d0" fill-opacity="0.501961" points="136,24 2,-16 -8,87" />
<polygon fill="#9a6136" fill-opacity="0.501961" points="167,132 151,124 171,112" />
<polygon fill="#af7341" fill-opacity="0.501961" points="72,98 86,80 65,94" />
<polygon fill="#c4ced2" fill-opacity="0.501961" points="130,100 153,134 128,136" />
<polygon fill="#c59cb7" fill-opacity="0.501961" points="81,81 97,59 98,77" />
<polygon fill="#daae94" fill-opacity="0.501961" points="133,50 136,62 120,54" />
<polygon fill="#573017" fill-opacity="0.501961" points="125,33 116,35 140,46" />
<polygon fill="#c0a385" fill-opacity="0.501961" points="149,110 128,86 136,83" />
<polygon fill="#8d6d4e" fill-opacity="0.501961" points="125,137 132,120 122,94" />
<polygon fill="#4a2712" fill-opacity="0.501961" points="97,68 101,75 108,49" />
<polygon fill="#5f3921" fill-opacity="0.501961" points="123,127 113,121 130,92" />
<polygon fill="#c39872" fill-opacity="0.501961" points="173,97 165,69 148,62" />
<polygon fill="#77482d" fill-opacity="0.501961" points="144,96 142,85 181,86" />
<polygon fill="#d0bdc9" fill-opacity="0.501961" points="68,4 271,-16 218,81" />
<polygon fill="#6c4021" fill-opacity="0.501961" points="105,124 99,109 106,89" />
<polygon fill="#ceb9ca" fill-opacity="0.501961" points="109,157 47,76 8,159" />
</g>
</svg>