<svg xmlns="http://www.w3.org/2000/svg" version="1.1" width="1024" height="576">
<rect x="0" y="0" width="1024" height="576" fill="#cdcdc7" />
<g transform="scale(4.000000) translate(0.5 0.5)">
<polygon fill="#13250c" fill-opacity="0.501961" points="22,77 215,67 139,15" />
<polygon fill="#ffffff" fill-opacity="0.501961" points="271,-3 250,159 142,-16" />
<polygon fill="#36402c" fill-opacity="0.501961" points="175,51 45,32 93,90" />
<polygon fill="#ffffff" fill-opacity="0.501961" points="132,64 271,132 125,159" />
<polygon fill="#fbf7f8" fill-opacity="0.501961" points="101,46 -16,-13 162,-15" />
<polygon fill="#f9f3f0" fill-opacity="0.501961" points="110,159 66,61 -16,137" />
<polygon fill="#92806f" fill-opacity="0.501961" points="68,17 122,84 111,151" />
<polygon fill="#fdfeff" fill-opacity="0.501961" points="128,35 185,-16 271,29" />
<polygon fill="#60715d" fill-opacity="0.501961" points="172,32 181,83 214,64" />
<polygon fill="#2a3f2b" fill-opacity="0.501961" points="65,32 90,33 36,86" />
<polygon fill="#efe9e7" fill-opacity="0.501961" points="30,90 -13,-6 62,19" />
<polygon fill="#273521" fill-opacity="0.501961" points="121,30 80,94 154,46" />
<polygon fill="#f8f4f4" fill-opacity="0.501961" points="93,148 271,25 271,145" />
<polygon fill="#ffffff" fill-opacity="0.501961" points="104,77 98,125 91,106" />
<polygon fill="#e6e8e4" fill-opacity="0.501961" points="205,72 180,57 171,69" />
<polygon fill="#37482a" fill-opacity="0.501961" points="118,28 155,18 133,12" />
<polygon fill="#dceae0" fill-opacity="0.501961" points="79,44 96,67 101,54" />
<polygon fill="#415544" fill-opacity="0.501961" points="85,110 99,79 88,54" />
<polygon fill="#32442c" fill-opacity="0.501961" points="178,69 187,84 187,62" />
<polygon fill="#e9e7e4" fill-opacity="0.501961" points="38,9 125,29 101,43" />
<polygon fill="#a57764" fill-opacity="0.501961" points="107,77 126,134 99,130" />
<polygon fill="#e5cec5" fill-opacity="0.501961" points="114,72 150,71 125,152" />
<polygon fill="#d1cac1" fill-opacity="0.501961" points="16,86 88,73 82,94" />
<polygon fill="#fdfcfd" fill-opacity="0.501961" points="271,65 180,45 253,-16" />
<polygon fill="#455642" fill-opacity="0.501961" points="160,48 197,52 210,72" />
<polygon fill="#ddd8d1" fill-opacity="0.501961" points="28,105 77,65 54,68" />
<polygon fill="#213320" fill-opacity="0.501961" points="43,84 34,77 49,73" />
<polygon fill="#4b5a4c" fill-opacity="0.501961" points="82,40 58,71 54,35" />
<polygon fill="#e8e4e2" fill-opacity="0.501961" points="31,43 64,50 19,55" />
<polygon fill="#ccd1ca" fill-opacity="0.501961" points="85,59 81,77 90,72" />
<polygon fill="#4a5e4b" fill-opacity="0.501961" points="170,67 140,29 156,74" />
<polygon fill="#ffffff" fill-opacity="0.501961" points="189,60 202,73 189,73" />
<polygon fill="#a9b2a5" fill-opacity="0.501961" points="124,44 145,39 129,48" />
<polygon fill="#feffff" fill-opacity="0.501961" points="177,46 165,46 165,40" />
<polygon fill="#eceae8" fill-opacity="0.501961" points="124,86 176,159 184,77" />
<polygon fill="#394935" fill-opacity="0.501961" points="58,36 78,67 82,31" />
<polygon fill="#ebebe9" fill-opacity="0.501961" points="188,-16 188,24 139,38" />
<polygon fill="#202719" fill-opacity="0.501961" points="119,52 104,73 162,56" />
<polygon fill="#e8e6e4" fill-opacity="0.501961" points="5,-3 178,0 47,37" />
<polygon fill="#e9e6e2" fill-opacity="0.501961" points="3,159 90,90 -16,94" />
<polygon fill="#414c35" fill-opacity="0.501961" points="107,46 106,88 136,14" />
<polygon fill="#e1e4e0" fill-opacity="0.501961" points="91,94 101,118 102,78" />
<polygon fill="#495c49" fill-opacity="0.501961" points="166,33 128,72 150,66" />
<polygon fill="#314629" fill-opacity="0.501961" points="93,101 86,105 87,95" />
<polygon fill="#72877e" fill-opacity="0.501961" points="144,78 146,66 163,60" />
<polygon fill="#6d7f76" fill-opacity="0.501961" points="173,68 164,54 171,81" />
<polygon fill="#2d3d29" fill-opacity="0.501961" points="88,54 78,74 71,73" />
<polygon fill="#ffffff" fill-opacity="0.501961" points="75,67 72,62 69,69" />
<polygon fill="#fcfcfa" fill-opacity="0.501961" points="136,36 144,38 134,26" />
<polygon fill="#42523e" fill-opacity="0.501961" points="164,64 182,36 178,61" />
</g>
</svg>