<svg xmlns="http://www.w3.org/2000/svg" version="1.1" width="1024" height="576">
<rect x="0" y="0" width="1024" height="576" fill="#adaea2" />
<g transform="scale(4.000000) translate(0.5 0.5)">
<polygon fill="#a73e00" fill-opacity="0.501961" points="74,15 79,104 189,126" />
<polygon fill="#73bef2" fill-opacity="0.501961" points="271,-8 113,-3 241,159" />
<polygon fill="#ffd265" fill-opacity="0.501961" points="48,159 43,89 230,136" />
<polygon fill="#000000" fill-opacity="0.501961" points="80,21 109,114 76,89" />
<polygon fill="#ffcf7f" fill-opacity="0.501961" points="79,11 145,16 135,129" />
<polygon fill="#62b4ec" fill-opacity="0.501961" points="-16,35 43,-16 41,159" />
<polygon fill="#ffffff" fill-opacity="0.501961" points="81,145 154,151 78,95" />
<polygon fill="#ffb45a" fill-opacity="0.501961" points="39,46 74,159 74,-16" />
<polygon fill="#b64800" fill-opacity="0.501961" points="70,105 45,130 75,159" />
<polygon fill="#501700" fill-opacity="0.501961" points="146,110 138,64 157,67" />
<polygon fill="#ffc989" fill-opacity="0.501961" points="225,159 145,63 161,159" />
<polygon fill="#7bbde9" fill-opacity="0.501961" points="2,159 58,149 -15,56" />
<polygon fill="#db8124" fill-opacity="0.501961" points="85,33 108,115 155,117" />
<polygon fill="#ffe4de" fill-opacity="0.501961" points="86,38 150,39 103,3" />
<polygon fill="#9bc6e2" fill-opacity="0.501961" points="158,88 244,159 271,91" />
<polygon fill="#010000" fill-opacity="0.501961" points="93,109 107,96 76,62" />
<polygon fill="#edb477" fill-opacity="0.501961" points="85,17 43,138 46,-16" />
<polygon fill="#f19c43" fill-opacity="0.501961" points="132,37 159,65 71,69" />
<polygon fill="#9a5e17" fill-opacity="0.501961" points="152,81 179,130 146,106" />
<polygon fill="#ff9900" fill-opacity="0.501961" points="125,128 167,159 171,144" />
<polygon fill="#ffe9b2" fill-opacity="0.501961" points="165,117 92,119 185,146" />
<polygon fill="#c36d00" fill-opacity="0.501961" points="39,109 74,134 62,159" />
<polygon fill="#000000" fill-opacity="0.501961" points="148,100 143,64 139,82" />
<polygon fill="#dfad73" fill-opacity="0.501961" points="135,48 145,114 104,96" />
<polygon fill="#64afe3" fill-opacity="0.501961" points="66,-16 136,-8 89,16" />
<polygon fill="#e2d8cf" fill-opacity="0.501961" points="153,48 162,108 187,124" />
<polygon fill="#882e00" fill-opacity="0.501961" points="91,18 72,27 85,33" />
<polygon fill="#e2c6a7" fill-opacity="0.501961" points="52,-4 59,125 79,34" />
<polygon fill="#962d00" fill-opacity="0.501961" points="97,85 108,69 85,42" />
<polygon fill="#86b4ce" fill-opacity="0.501961" points="231,156 155,-16 164,86" />
<polygon fill="#ffeab9" fill-opacity="0.501961" points="74,154 76,88 127,151" />
<polygon fill="#d65b39" fill-opacity="0.501961" points="133,25 121,16 115,31" />
<polygon fill="#c97f32" fill-opacity="0.501961" points="196,142 190,119 209,125" />
<polygon fill="#ca5d00" fill-opacity="0.501961" points="127,120 102,109 101,85" />
<polygon fill="#7eadc9" fill-opacity="0.501961" points="46,-16 -16,3 41,79" />
<polygon fill="#fffffe" fill-opacity="0.501961" points="93,15 111,32 123,11" />
<polygon fill="#000000" fill-opacity="0.501961" points="75,60 84,45 83,26" />
<polygon fill="#040000" fill-opacity="0.501961" points="99,109 92,78 81,93" />
<polygon fill="#4097d9" fill-opacity="0.501961" points="79,35 76,50 71,28" />
<polygon fill="#e88f00" fill-opacity="0.501961" points="163,131 176,124 153,127" />
<polygon fill="#bd8a51" fill-opacity="0.501961" points="168,109 147,98 150,49" />
<polygon fill="#e5b379" fill-opacity="0.501961" points="78,87 44,-5 56,130" />
<polygon fill="#fff9e3" fill-opacity="0.501961" points="92,106 113,159 148,148" />
<polygon fill="#d08a51" fill-opacity="0.501961" points="103,38 98,30 75,58" />
<polygon fill="#fedbb6" fill-opacity="0.501961" points="70,-12 44,0 87,15" />
<polygon fill="#a5c5d9" fill-opacity="0.501961" points="196,111 220,158 271,135" />
<polygon fill="#140100" fill-opacity="0.501961" points="146,109 143,95 156,112" />
<polygon fill="#f7c28d" fill-opacity="0.501961" points="156,62 152,40 116,37" />
<polygon fill="#f1a532" fill-opacity="0.501961" points="101,149 93,124 108,146" />
<polygon fill="#170802" fill-opacity="0.501961" points="77,62 92,105 78,89" />
</g>
</svg>