<svg xmlns="http://www.w3.org/2000/svg" version="1.1" width="1024" height="576">
<rect x="0" y="0" width="1024" height="576" fill="#9c9487" />
<g transform="scale(4.000000) translate(0.5 0.5)">
<polygon fill="#fffeff" fill-opacity="0.501961" points="150,104 222,102 207,-16" />
<polygon fill="#fff3df" fill-opacity="0.501961" points="8,84 -16,0 164,-16" />
<polygon fill="#000800" fill-opacity="0.501961" points="132,-6 121,89 176,28" />
<polygon fill="#663d0b" fill-opacity="0.501961" points="2,159 218,142 -16,97" />
<polygon fill="#ffffff" fill-opacity="0.501961" points="119,159 94,73 119,70" />
<polygon fill="#2c3420" fill-opacity="0.501961" points="115,41 81,33 71,157" />
<polygon fill="#564a30" fill-opacity="0.501961" points="152,40 157,159 109,50" />
<polygon fill="#56616c" fill-opacity="0.501961" points="203,152 271,141 252,-16" />
<polygon fill="#9d7647" fill-opacity="0.501961" points="271,99 53,135 263,159" />
<polygon fill="#dad5db" fill-opacity="0.501961" points="157,71 177,137 192,-16" />
<polygon fill="#5d85b1" fill-opacity="0.501961" points="271,15 222,113 216,-16" />
<polygon fill="#f2eeef" fill-opacity="0.501961" points="97,71 103,133 131,73" />
<polygon fill="#d5c2b3" fill-opacity="0.501961" points="-16,83 31,-10 90,67" />
<polygon fill="#ccc9d1" fill-opacity="0.501961" points="128,0 220,24 213,-16" />
<polygon fill="#0d3223" fill-opacity="0.501961" points="171,13 169,48 123,16" />
<polygon fill="#f6ece3" fill-opacity="0.501961" points="125,32 119,0 98,43" />
<polygon fill="#766446" fill-opacity="0.501961" points="121,46 178,159 120,140" />
<polygon fill="#664b2c" fill-opacity="0.501961" points="96,102 90,144 -16,114" />
<polygon fill="#234c33" fill-opacity="0.501961" points="109,27 92,45 69,37" />
<polygon fill="#e3d6cf" fill-opacity="0.501961" points="217,38 145,50 212,101" />
<polygon fill="#e6d5cc" fill-opacity="0.501961" points="82,38 167,-16 35,10" />
<polygon fill="#19201b" fill-opacity="0.501961" points="170,43 155,26 100,65" />
<polygon fill="#afaba8" fill-opacity="0.501961" points="-16,104 48,38 76,101" />
<polygon fill="#263a2c" fill-opacity="0.501961" points="134,42 123,17 154,-7" />
<polygon fill="#a68862" fill-opacity="0.501961" points="143,159 188,103 269,101" />
<polygon fill="#48342b" fill-opacity="0.501961" points="92,69 73,81 95,151" />
<polygon fill="#c3bcc0" fill-opacity="0.501961" points="212,-12 219,39 118,-15" />
<polygon fill="#1b4428" fill-opacity="0.501961" points="82,54 122,36 92,65" />
<polygon fill="#fcfdff" fill-opacity="0.501961" points="99,123 118,123 120,71" />
<polygon fill="#e4dcda" fill-opacity="0.501961" points="123,33 120,47 133,44" />
<polygon fill="#b1a79b" fill-opacity="0.501961" points="149,116 156,48 171,117" />
<polygon fill="#bdbcad" fill-opacity="0.501961" points="98,39 100,51 124,30" />
<polygon fill="#506f8b" fill-opacity="0.501961" points="271,102 253,-15 235,101" />
<polygon fill="#f0eff4" fill-opacity="0.501961" points="179,115 179,75 165,118" />
<polygon fill="#447259" fill-opacity="0.501961" points="171,15 137,0 172,42" />
<polygon fill="#a39f88" fill-opacity="0.501961" points="140,106 121,104 132,70" />
<polygon fill="#d3c4b4" fill-opacity="0.501961" points="-16,48 93,72 58,17" />
<polygon fill="#4f4e3d" fill-opacity="0.501961" points="94,56 147,84 146,65" />
<polygon fill="#3b2d23" fill-opacity="0.501961" points="119,119 150,120 145,109" />
<polygon fill="#dfcab7" fill-opacity="0.501961" points="75,104 43,101 73,84" />
<polygon fill="#ab957e" fill-opacity="0.501961" points="126,120 99,126 115,159" />
<polygon fill="#bbafa6" fill-opacity="0.501961" points="91,67 105,88 99,122" />
<polygon fill="#b8b3b7" fill-opacity="0.501961" points="182,65 173,15 226,-16" />
<polygon fill="#072a14" fill-opacity="0.501961" points="86,31 97,45 92,60" />
<polygon fill="#979692" fill-opacity="0.501961" points="-16,79 17,109 84,61" />
<polygon fill="#9b7742" fill-opacity="0.501961" points="16,104 75,119 75,103" />
<polygon fill="#7e92aa" fill-opacity="0.501961" points="248,98 217,-12 218,103" />
<polygon fill="#07140b" fill-opacity="0.501961" points="108,44 120,40 121,33" />
<polygon fill="#ebdfd5" fill-opacity="0.501961" points="221,99 172,102 213,50" />
<polygon fill="#a2aea5" fill-opacity="0.501961" points="122,71 98,66 98,58" />
</g>
</svg>