<svg xmlns="http://www.w3.org/2000/svg" version="1.1" width="1024" height="576">
<rect x="0" y="0" width="1024" height="576" fill="#b8c7cc" />
<g transform="scale(4.000000) translate(0.5 0.5)">
<polygon fill="#000000" fill-opacity="0.501961" points="90,84 176,128 150,-16" />
<polygon fill="#000000" fill-opacity="0.501961" points="129,132 117,16 183,70" />
<polygon fill="#ffffff" fill-opacity="0.501961" points="271,142 251,-16 136,148" />
<polygon fill="#e1feff" fill-opacity="0.501961" points="133,-14 68,159 -16,39" />
<polygon fill="#f8ffff" fill-opacity="0.501961" points="256,-13 197,58 109,-16" />
<polygon fill="#060000" fill-opacity="0.501961" points="150,18 92,76 172,107" />
<polygon fill="#d6e7f0" fill-opacity="0.501961" points="-16,155 13,-16 168,159" />
<polygon fill="#bae4f9" fill-opacity="0.501961" points="16,67 198,-16 -16,-4" />
<polygon fill="#161412" fill-opacity="0.501961" points="145,13 135,128 114,30" />
<polygon fill="#e9f7f7" fill-opacity="0.501961" points="271,64 256,159 130,123" />
<polygon fill="#211b17" fill-opacity="0.501961" points="160,114 90,75 163,32" />
<polygon fill="#d9f1f6" fill-opacity="0.501961" points="217,106 271,0 133,-9" />
<polygon fill="#d3eaf4" fill-opacity="0.501961" points="30,50 107,65 123,8" />
<polygon fill="#7196b2" fill-opacity="0.501961" points="169,90 194,71 164,51" />
<polygon fill="#b5afad" fill-opacity="0.501961" points="124,104 86,65 86,145" />
<polygon fill="#1f1f1e" fill-opacity="0.501961" points="172,91 121,112 126,15" />
<polygon fill="#dcf4fb" fill-opacity="0.501961" points="-3,66 -7,159 70,138" />
<polygon fill="#191919" fill-opacity="0.501961" points="117,35 177,69 108,87" />
<polygon fill="#0e1315" fill-opacity="0.501961" points="117,29 136,13 163,32" />
<polygon fill="#b0d3e1" fill-opacity="0.501961" points="184,83 173,113 171,70" />
<polygon fill="#2c1000" fill-opacity="0.501961" points="138,126 135,119 133,131" />
<polygon fill="#d6eaf2" fill-opacity="0.501961" points="162,0 227,74 165,60" />
<polygon fill="#c1dfed" fill-opacity="0.501961" points="-12,108 4,-15 178,-16" />
<polygon fill="#dedad4" fill-opacity="0.501961" points="143,139 94,159 96,83" />
<polygon fill="#8d7d6c" fill-opacity="0.501961" points="97,159 89,112 85,154" />
<polygon fill="#826458" fill-opacity="0.501961" points="154,112 163,106 154,125" />
<polygon fill="#d9eaee" fill-opacity="0.501961" points="271,2 253,102 128,-2" />
<polygon fill="#261e18" fill-opacity="0.501961" points="90,72 150,116 135,73" />
<polygon fill="#e9f5f5" fill-opacity="0.501961" points="149,146 211,140 163,108" />
<polygon fill="#22272b" fill-opacity="0.501961" points="159,27 160,48 150,20" />
<polygon fill="#d3e8f0" fill-opacity="0.501961" points="114,49 23,125 119,-16" />
<polygon fill="#2a1f18" fill-opacity="0.501961" points="176,100 138,114 121,101" />
<polygon fill="#d2e8f0" fill-opacity="0.501961" points="124,7 106,64 31,97" />
<polygon fill="#9a9899" fill-opacity="0.501961" points="134,120 105,81 113,105" />
<polygon fill="#f8efe2" fill-opacity="0.501961" points="152,112 126,158 160,148" />
<polygon fill="#313d4a" fill-opacity="0.501961" points="180,65 185,77 161,63" />
<polygon fill="#121719" fill-opacity="0.501961" points="101,67 86,80 107,70" />
<polygon fill="#ded5cf" fill-opacity="0.501961" points="61,159 84,65 87,145" />
<polygon fill="#7e9aae" fill-opacity="0.501961" points="194,73 184,77 179,66" />
<polygon fill="#3c4149" fill-opacity="0.501961" points="172,88 163,67 167,102" />
<polygon fill="#a9d6eb" fill-opacity="0.501961" points="-16,73 -16,-16 66,-16" />
<polygon fill="#52525d" fill-opacity="0.501961" points="171,98 159,108 174,108" />
<polygon fill="#c6cfd7" fill-opacity="0.501961" points="91,159 91,83 116,97" />
<polygon fill="#745343" fill-opacity="0.501961" points="94,74 113,91 108,81" />
<polygon fill="#779cb7" fill-opacity="0.501961" points="188,83 163,71 168,80" />
<polygon fill="#1d2021" fill-opacity="0.501961" points="105,68 124,26 161,33" />
<polygon fill="#cbe3ec" fill-opacity="0.501961" points="188,-16 242,15 78,10" />
<polygon fill="#dff0f2" fill-opacity="0.501961" points="171,80 231,106 178,106" />
<polygon fill="#9b8a75" fill-opacity="0.501961" points="137,139 138,128 134,132" />
<polygon fill="#342f2d" fill-opacity="0.501961" points="144,15 161,35 162,57" />
</g>
</svg>