<?xml version="1.0" encoding="UTF-8" standalone="no"?>
<svg width="41px" height="34px" viewBox="0 0 41 34" version="1.1" xmlns="http://www.w3.org/2000/svg" xmlns:xlink="http://www.w3.org/1999/xlink">
    <!-- Generator: Sketch 47.1 (45422) - http://www.bohemiancoding.com/sketch -->
    <title>”</title>
    <desc>Created with Sketch.</desc>
    <defs></defs>
    <g id="Home" stroke="none" stroke-width="1" fill="none" fill-rule="evenodd" opacity="0.100000001">
        <g id="Home-" transform="translate(-500.000000, -4249.000000)" fill="#1FACFF">
            <g id="Group-8" transform="translate(70.000000, 4061.000000)">
                <path d="M430,188 L445.45,188 C446.750007,193.300027 447.4,198.249977 447.4,202.85 C447.4,215.350063 441.800056,221.6 430.6,221.6 L430.6,214.1 C435.400024,214.1 437.8,211.250029 437.8,205.55 L437.8,202.4 L430,202.4 L430,188 Z M452.65,188 L468.1,188 C469.400007,193.300027 470.05,198.249977 470.05,202.85 C470.05,215.350063 464.450056,221.6 453.25,221.6 L453.25,214.1 C458.050024,214.1 460.45,211.250029 460.45,205.55 L460.45,202.4 L452.65,202.4 L452.65,188 Z" id="”"></path>
            </g>
        </g>
    </g>
</svg>