<?xml version="1.0" encoding="UTF-8" standalone="no"?>
<svg width="14px" height="14px" viewBox="0 0 14 14" version="1.1" xmlns="http://www.w3.org/2000/svg" xmlns:xlink="http://www.w3.org/1999/xlink">
    <g id="Home" stroke="none" stroke-width="1" fill-rule="evenodd">
        <g id="Travel-Blog" transform="translate(-1806.000000, -43.000000)">
            <g id="Group" transform="translate(1806.000000, 43.000000)">
                <path d="M2.63046,8.56954 C1.83666,7.77784 1.39986,6.72224 1.39986,5.60014 C1.39986,4.47804 1.83666,3.42384 2.63046,2.63074 C3.42356,1.83694 4.47846,1.40014 5.59986,1.40014 C6.72196,1.40014 7.77616,1.83694 8.56926,2.63144 C9.36306,3.42384 9.79986,4.47804 9.79986,5.60014 C9.79986,6.72224 9.36306,7.77784 8.56926,8.57024 C7.77616,9.36334 6.72196,9.80014 5.59986,9.80014 C4.47846,9.80014 3.42356,9.36334 2.63046,8.56954 L2.63046,8.56954 Z M13.75906,12.80524 L10.00496,9.05114 C10.77706,8.07044 11.19986,6.86854 11.19986,5.60014 C11.19986,4.10424 10.61746,2.69794 9.55906,1.64094 C8.50206,0.58324 7.09576,0.00014 5.59986,0.00014 C4.10396,0.00014 2.69836,0.58324 1.64066,1.64094 C0.58296,2.69794 -0.00014,4.10424 -0.00014,5.60014 C-0.00014,7.09674 0.58296,8.50234 1.64066,9.56004 C2.69836,10.61774 4.10396,11.20014 5.59986,11.20014 C6.85076,11.20014 8.03586,10.78784 9.01026,10.03604 L12.76926,13.79504 L13.75906,12.80524 Z" id="Fill-228"></path>
            </g>
        </g>
    </g>
</svg>
