<?xml version="1.0" encoding="utf-8"?><svg xmlns="http://www.w3.org/2000/svg" xmlns:xlink="http://www.w3.org/1999/xlink"><symbol viewBox="0 0 22 28" id="500px" xmlns="http://www.w3.org/2000/svg"><path d="M21.891 24.172l-.094.094A12.672 12.672 0 0 1 17.75 27a12.752 12.752 0 0 1-9.906 0 12.53 12.53 0 0 1-4.047-2.734 12.442 12.442 0 0 1-2.734-4.031c-.391-.953-.703-1.937-.844-2.953-.063-.438.547-.531.75-.562.484-.078.812-.047.875.313.016.016.016.031.016.063.063.313.219 1.25.719 2.484.516 1.281 1.313 2.469 2.375 3.531a11.061 11.061 0 0 0 3.531 2.375c1.359.578 2.812.875 4.312.875 1.484 0 2.938-.297 4.312-.875a11.164 11.164 0 0 0 3.516-2.375l.094-.094a.361.361 0 0 1 .391-.094c.141.031.313.156.516.344.5.516.391.766.266.906zm-7.375-9.61l-1.031 1.031.984.984c.109.109.313.344-.109.766-.172.172-.344.266-.5.266-.109 0-.203-.047-.297-.156l-.969-.953-1.031 1.031a.335.335 0 0 1-.234.078c-.141 0-.313-.078-.484-.25l-.031-.031c-.109-.094-.281-.266-.281-.453 0-.094.047-.172.125-.266l1.031-1.016-1.031-1.031c-.172-.172-.094-.391.219-.703.187-.187.344-.281.484-.281.078 0 .141.031.203.078l1.016 1.031 1.016-1.016c.172-.172.453-.094.75.203.187.187.391.453.172.688zm7.359.891a9.24 9.24 0 0 1-.719 3.563c-.469 1.094-1.125 2.063-1.969 2.906s-1.828 1.5-2.922 1.969c-1.125.484-2.328.719-3.563.719s-2.438-.234-3.563-.719c-1.094-.469-2.078-1.125-2.922-1.969s-1.5-1.813-1.953-2.906a5.106 5.106 0 0 1-.234-.625h-.016c-.141-.438.484-.625.672-.688.453-.141.797-.203.938.187.375 1 .953 1.969 1.516 2.609h.016v-5.328a5.247 5.247 0 0 1 1.594-3.625 5.605 5.605 0 0 1 3.953-1.609c3.063 0 5.547 2.469 5.547 5.5 0 3.063-2.5 5.547-5.547 5.547a5.513 5.513 0 0 1-1.75-.25c-.078-.031-.438-.187-.203-.953.063-.203.25-.797.688-.672.031 0 .797.187 1.203.187 2.172 0 3.875-1.687 3.875-3.844a3.72 3.72 0 0 0-1.125-2.672c-.719-.719-1.687-1.109-2.734-1.109a3.655 3.655 0 0 0-2.781 1.25c-.625.703-1 1.641-1 2.5v6.453a7.208 7.208 0 0 0 3.781 1.047c2 0 3.937-.797 5.328-2.188a7.45 7.45 0 0 0 2.188-5.281c0-2-.781-3.875-2.203-5.297-1.406-1.406-3.281-2.188-5.297-2.188s-3.906.781-5.313 2.188c-.016.016-.906.938-1.203 1.359l-.031.031c-.187.266-.359.516-1.141.344-.391-.094-.812-.328-.812-.672V.592c0-.281.219-.594.594-.594H18.47c.469 0 .469.656.469.859 0 .219 0 .859-.469.859H5.798v7.547h.016c.875-.922 2.391-1.891 3.281-2.266a9.35 9.35 0 0 1 3.609-.719c1.234 0 2.438.234 3.563.719a9.267 9.267 0 0 1 4.891 4.875 9.315 9.315 0 0 1 .719 3.578zm-.484-9.078c.297.266.094.547-.203.891-.187.187-.391.406-.609.406a.332.332 0 0 1-.25-.109c-1.125-.969-2.141-1.625-3.234-2.078-1.359-.594-2.812-.875-4.312-.875a11.79 11.79 0 0 0-4.094.766c-.406.156-.625-.375-.703-.578-.094-.25-.141-.453-.125-.594.031-.156.109-.266.25-.313C9.392 3.329 11.142 3 12.783 3c1.703 0 3.375.344 4.937 1 1.437.609 2.609 1.359 3.672 2.375z"/></symbol><symbol viewBox="0 0 22 28" id="android" xmlns="http://www.w3.org/2000/svg"><path d="M7.703 7.547a.61.61 0 0 0 0-1.218c-.328 0-.594.281-.594.609s.266.609.594.609zm6.594 0c.328 0 .594-.281.594-.609s-.266-.609-.594-.609a.61.61 0 0 0 0 1.218zM1.609 10.422a1.6 1.6 0 0 1 1.594 1.594v6.719c0 .891-.703 1.609-1.594 1.609S0 19.625 0 18.735v-6.719c0-.875.719-1.594 1.609-1.594zm16.563.297v10.406c0 .953-.766 1.719-1.703 1.719h-1.172v3.547c0 .891-.719 1.609-1.609 1.609s-1.609-.719-1.609-1.609v-3.547H9.923v3.547c0 .891-.719 1.609-1.609 1.609a1.604 1.604 0 0 1-1.594-1.609l-.016-3.547H5.548a1.714 1.714 0 0 1-1.719-1.719V10.719h14.344zm-3.625-6.328c2.188 1.125 3.672 3.281 3.672 5.766H3.766c0-2.484 1.484-4.641 3.687-5.766L6.344 2.344a.228.228 0 0 1 .078-.313c.109-.047.25-.016.313.094L7.86 4.188c.953-.422 2.016-.656 3.141-.656s2.188.234 3.141.656l1.125-2.063c.063-.109.203-.141.313-.094a.228.228 0 0 1 .078.313zM22 12.016v6.719c0 .891-.719 1.609-1.609 1.609a1.604 1.604 0 0 1-1.594-1.609v-6.719a1.59 1.59 0 0 1 1.594-1.594c.891 0 1.609.703 1.609 1.594z"/></symbol><symbol viewBox="0 0 18 28" id="angle-double-down" xmlns="http://www.w3.org/2000/svg"><path d="M16.797 13.5a.54.54 0 0 1-.156.359L9.36 21.14c-.094.094-.234.156-.359.156s-.266-.063-.359-.156l-7.281-7.281c-.094-.094-.156-.234-.156-.359s.063-.266.156-.359l.781-.781a.508.508 0 0 1 .359-.156.54.54 0 0 1 .359.156l6.141 6.141 6.141-6.141c.094-.094.234-.156.359-.156s.266.063.359.156l.781.781a.536.536 0 0 1 .156.359zm0-6a.54.54 0 0 1-.156.359L9.36 15.14c-.094.094-.234.156-.359.156s-.266-.063-.359-.156L1.361 7.859c-.094-.094-.156-.234-.156-.359s.063-.266.156-.359l.781-.781a.508.508 0 0 1 .359-.156.54.54 0 0 1 .359.156l6.141 6.141 6.141-6.141c.094-.094.234-.156.359-.156s.266.063.359.156l.781.781a.536.536 0 0 1 .156.359z"/></symbol><symbol viewBox="0 0 17 28" id="angle-double-left" xmlns="http://www.w3.org/2000/svg"><path d="M9.797 21.5a.54.54 0 0 1-.156.359l-.781.781c-.094.094-.234.156-.359.156s-.266-.063-.359-.156L.861 15.359C.767 15.265.705 15.125.705 15s.063-.266.156-.359L8.142 7.36c.094-.094.234-.156.359-.156s.266.063.359.156l.781.781c.094.094.156.234.156.359s-.063.266-.156.359L3.5 15l6.141 6.141a.536.536 0 0 1 .156.359zm6 0a.54.54 0 0 1-.156.359l-.781.781c-.094.094-.234.156-.359.156s-.266-.063-.359-.156l-7.281-7.281c-.094-.094-.156-.234-.156-.359s.063-.266.156-.359l7.281-7.281c.094-.094.234-.156.359-.156s.266.063.359.156l.781.781c.094.094.156.234.156.359s-.063.266-.156.359L9.5 15l6.141 6.141a.536.536 0 0 1 .156.359z"/></symbol><symbol viewBox="0 0 15 28" id="angle-double-right" xmlns="http://www.w3.org/2000/svg"><path d="M9.297 15a.54.54 0 0 1-.156.359L1.86 22.64c-.094.094-.234.156-.359.156s-.266-.063-.359-.156l-.781-.781c-.094-.094-.156-.234-.156-.359s.063-.266.156-.359L6.502 15 .361 8.859C.267 8.765.205 8.625.205 8.5s.063-.266.156-.359l.781-.781c.094-.094.234-.156.359-.156s.266.063.359.156l7.281 7.281a.536.536 0 0 1 .156.359zm6 0a.54.54 0 0 1-.156.359L7.86 22.64c-.094.094-.234.156-.359.156s-.266-.063-.359-.156l-.781-.781c-.094-.094-.156-.234-.156-.359s.063-.266.156-.359L12.502 15 6.361 8.859c-.094-.094-.156-.234-.156-.359s.063-.266.156-.359l.781-.781c.094-.094.234-.156.359-.156s.266.063.359.156l7.281 7.281a.536.536 0 0 1 .156.359z"/></symbol><symbol viewBox="0 0 18 28" id="angle-double-up" xmlns="http://www.w3.org/2000/svg"><path d="M16.797 20.5a.54.54 0 0 1-.156.359l-.781.781a.508.508 0 0 1-.359.156.54.54 0 0 1-.359-.156l-6.141-6.141L2.86 21.64c-.094.094-.234.156-.359.156s-.266-.063-.359-.156l-.781-.781c-.094-.094-.156-.234-.156-.359s.063-.266.156-.359l7.281-7.281c.094-.094.234-.156.359-.156s.266.063.359.156l7.281 7.281a.536.536 0 0 1 .156.359zm0-6a.54.54 0 0 1-.156.359l-.781.781a.508.508 0 0 1-.359.156.54.54 0 0 1-.359-.156L9.001 9.499 2.86 15.64c-.094.094-.234.156-.359.156s-.266-.063-.359-.156l-.781-.781c-.094-.094-.156-.234-.156-.359s.063-.266.156-.359L8.642 6.86c.094-.094.234-.156.359-.156s.266.063.359.156l7.281 7.281a.536.536 0 0 1 .156.359z"/></symbol><symbol viewBox="0 0 18 28" id="angle-down" xmlns="http://www.w3.org/2000/svg"><path d="M16.797 11.5a.54.54 0 0 1-.156.359L9.36 19.14c-.094.094-.234.156-.359.156s-.266-.063-.359-.156l-7.281-7.281c-.094-.094-.156-.234-.156-.359s.063-.266.156-.359l.781-.781a.508.508 0 0 1 .359-.156.54.54 0 0 1 .359.156l6.141 6.141 6.141-6.141c.094-.094.234-.156.359-.156s.266.063.359.156l.781.781a.536.536 0 0 1 .156.359z"/></symbol><symbol viewBox="0 0 11 28" id="angle-left" xmlns="http://www.w3.org/2000/svg"><path d="M9.797 8.5a.54.54 0 0 1-.156.359L3.5 15l6.141 6.141c.094.094.156.234.156.359s-.063.266-.156.359l-.781.781c-.094.094-.234.156-.359.156s-.266-.063-.359-.156L.861 15.359C.767 15.265.705 15.125.705 15s.063-.266.156-.359L8.142 7.36c.094-.094.234-.156.359-.156s.266.063.359.156l.781.781a.508.508 0 0 1 .156.359z"/></symbol><symbol viewBox="0 0 9 28" id="angle-right" xmlns="http://www.w3.org/2000/svg"><path d="M9.297 15a.54.54 0 0 1-.156.359L1.86 22.64c-.094.094-.234.156-.359.156s-.266-.063-.359-.156l-.781-.781a.508.508 0 0 1-.156-.359.54.54 0 0 1 .156-.359L6.502 15 .361 8.859C.267 8.765.205 8.625.205 8.5s.063-.266.156-.359l.781-.781c.094-.094.234-.156.359-.156s.266.063.359.156l7.281 7.281a.536.536 0 0 1 .156.359z"/></symbol><symbol viewBox="0 0 18 28" id="angle-up" xmlns="http://www.w3.org/2000/svg"><path d="M16.797 18.5a.54.54 0 0 1-.156.359l-.781.781a.508.508 0 0 1-.359.156.54.54 0 0 1-.359-.156l-6.141-6.141L2.86 19.64c-.094.094-.234.156-.359.156s-.266-.063-.359-.156l-.781-.781c-.094-.094-.156-.234-.156-.359s.063-.266.156-.359l7.281-7.281c.094-.094.234-.156.359-.156s.266.063.359.156l7.281 7.281a.536.536 0 0 1 .156.359z"/></symbol><symbol viewBox="0 0 22 28" id="apple" xmlns="http://www.w3.org/2000/svg"><path d="M21.766 18.984c-.391 1.234-1.016 2.547-1.922 3.906-1.344 2.047-2.688 3.063-4.016 3.063-.531 0-1.25-.172-2.188-.5-.922-.344-1.719-.5-2.359-.5-.625 0-1.375.172-2.219.516-.859.359-1.547.531-2.063.531-1.609 0-3.156-1.359-4.703-4.047C.78 19.265-.001 16.656-.001 14.094c0-2.391.594-4.328 1.766-5.844C2.937 6.75 4.406 6 6.203 6c.766 0 1.672.156 2.766.469 1.078.313 1.797.469 2.156.469.453 0 1.203-.172 2.234-.531 1.031-.344 1.937-.531 2.703-.531 1.25 0 2.359.344 3.328 1.016.547.375 1.094.906 1.625 1.563-.812.688-1.406 1.297-1.781 1.844a5.554 5.554 0 0 0-1.016 3.234c0 1.281.359 2.453 1.078 3.484s1.547 1.687 2.469 1.969zM15.891.656c0 .641-.156 1.359-.453 2.125-.313.781-.797 1.5-1.453 2.156-.562.562-1.125.938-1.687 1.125-.359.109-.891.203-1.625.266.031-1.547.438-2.891 1.219-4.016S13.986.421 15.798 0c.031.141.063.25.078.344 0 .109.016.203.016.313z"/></symbol><symbol viewBox="0 0 23 28" id="arrow-right" xmlns="http://www.w3.org/2000/svg"><path d="M23 15a2.01 2.01 0 0 1-.578 1.422L12.25 26.594c-.375.359-.891.578-1.422.578s-1.031-.219-1.406-.578L8.25 25.422c-.375-.375-.594-.891-.594-1.422s.219-1.047.594-1.422L12.828 18h-11C.703 18 0 17.062 0 16v-2c0-1.062.703-2 1.828-2h11L8.25 7.406a1.96 1.96 0 0 1 0-2.812l1.172-1.172c.375-.375.875-.594 1.406-.594s1.047.219 1.422.594l10.172 10.172c.375.359.578.875.578 1.406z"/></symbol><symbol viewBox="0 0 448 512" id="arrow-up" xmlns="http://www.w3.org/2000/svg"><path d="M4.465 263.536l7.07 7.071c4.686 4.686 12.284 4.686 16.971 0L207 92.113V468c0 6.627 5.373 12 12 12h10c6.627 0 12-5.373 12-12V92.113l178.494 178.493c4.686 4.686 12.284 4.686 16.971 0l7.07-7.071c4.686-4.686 4.686-12.284 0-16.97l-211.05-211.05c-4.686-4.686-12.284-4.686-16.971 0L4.465 246.566c-4.687 4.686-4.687 12.284 0 16.97z"/></symbol><symbol viewBox="0 0 24 28" id="behance" xmlns="http://www.w3.org/2000/svg"><path d="M19.5 2C21.984 2 24 4.016 24 6.5v15c0 2.484-2.016 4.5-4.5 4.5h-15A4.502 4.502 0 0 1 0 21.5v-15C0 4.016 2.016 2 4.5 2h15zM7.797 7.734H2v12.297h5.969c2.234 0 4.328-1.062 4.328-3.563 0-1.547-.734-2.688-2.234-3.125 1.094-.531 1.672-1.328 1.672-2.562 0-2.453-1.828-3.047-3.937-3.047zm-.344 4.969h-2.75V9.828H7.25c.969 0 1.859.266 1.859 1.406 0 1.047-.688 1.469-1.656 1.469zm.141 5.235H4.703v-3.391h2.953c1.188 0 1.937.516 1.937 1.766s-.891 1.625-2 1.625zm10.156.5c-1.437 0-2.188-.844-2.188-2.266h6.422c.016-.156.016-.313.016-.469 0-2.625-1.547-4.828-4.344-4.828-2.703 0-4.562 2.047-4.562 4.719 0 2.781 1.75 4.672 4.562 4.672 2.141 0 3.516-.953 4.172-2.984h-2.156c-.234.75-1.188 1.156-1.922 1.156zm-.156-5.719c1.219 0 1.828.734 1.937 1.906h-3.969c.078-1.172.859-1.906 2.031-1.906zm-2.532-4.156h4.984v1.203h-4.984V8.563z"/></symbol><symbol viewBox="0 0 22 28" id="bitbucket" xmlns="http://www.w3.org/2000/svg"><path d="M12.734 13.422c.172 1.312-1.422 2.344-2.531 1.672-1.25-.547-1.25-2.531-.031-3.094 1.047-.641 2.562.203 2.562 1.422zm1.735-.328c-.281-2.219-2.797-3.687-4.844-2.766-1.297.578-2.172 1.953-2.109 3.406.078 1.906 1.891 3.469 3.797 3.297s3.391-2.031 3.156-3.938zm3.734-8.469c-.688-.906-1.859-1.062-2.891-1.234-2.922-.469-5.922-.484-8.844.031-.969.156-2.063.328-2.672 1.203 1 .938 2.422 1.078 3.703 1.234 2.312.297 4.688.313 7 .016 1.297-.156 2.734-.281 3.703-1.25zm.891 16.172c-.438 1.531-.187 3.594-1.813 4.484-2.797 1.547-6.188 1.719-9.266 1.172-1.625-.297-3.531-.812-4.422-2.344-.391-1.5-.641-3.031-.891-4.562l.094-.25.281-.141c4.656 3.078 11.172 3.078 15.844 0 .734.219.187 1.109.172 1.641zm2.828-15.016c-.531 3.422-1.141 6.828-1.734 10.234-.172 1-1.141 1.563-1.953 1.984-2.922 1.469-6.328 1.719-9.531 1.375-2.172-.234-4.391-.812-6.156-2.172-.828-.641-.828-1.734-.984-2.656C1.017 11.343.392 8.14.001 4.905c.187-1.406 1.766-2.016 2.938-2.453 1.563-.578 3.234-.844 4.891-1 3.531-.344 7.141-.219 10.563.781 1.219.359 2.531.859 3.359 1.906.375.484.25 1.094.172 1.641z"/></symbol><symbol viewBox="0 0 28 28" id="codepen" xmlns="http://www.w3.org/2000/svg"><path d="M3.375 18.266l9.422 6.281v-5.609l-5.219-3.484zm-.969-2.25L5.422 14l-3.016-2.016v4.031zm12.797 8.531l9.422-6.281-4.203-2.812-5.219 3.484v5.609zM14 16.844L18.25 14 14 11.156 9.75 14zm-6.422-4.297l5.219-3.484V3.454L3.375 9.735zm15 1.453l3.016 2.016v-4.031zm-2.156-1.453l4.203-2.812-9.422-6.281v5.609zM28 9.734v8.531c0 .391-.203.781-.531 1l-12.797 8.531c-.203.125-.438.203-.672.203s-.469-.078-.672-.203L.531 19.265a1.223 1.223 0 0 1-.531-1V9.734c0-.391.203-.781.531-1L13.328.203C13.531.078 13.766 0 14 0s.469.078.672.203l12.797 8.531c.328.219.531.609.531 1z"/></symbol><symbol viewBox="0 0 24 28" id="delicious" xmlns="http://www.w3.org/2000/svg"><path d="M23 21.5V14H12V3H4.5A3.495 3.495 0 0 0 1 6.5V14h11v11h7.5c1.937 0 3.5-1.563 3.5-3.5zm1-15v15c0 2.484-2.016 4.5-4.5 4.5h-15A4.502 4.502 0 0 1 0 21.5v-15C0 4.016 2.016 2 4.5 2h15C21.984 2 24 4.016 24 6.5z"/></symbol><symbol viewBox="0 0 16 28" id="deviantart" xmlns="http://www.w3.org/2000/svg"><path d="M16 4.734l-4.734 9.094.375.484H16v6.484H8.078l-.688.469-2.219 4.266c-.016 0-.438.438-.469.469H-.001v-4.734l4.734-9.109-.375-.469H-.001V5.204h7.922l.688-.469L10.828.469c.016 0 .438-.438.469-.469H16v4.734z"/></symbol><symbol viewBox="0 0 32 28" id="digg" xmlns="http://www.w3.org/2000/svg"><path d="M5.125 4.406h3.187v15.359H-.001V8.874h5.125V4.405zm0 12.797v-5.766H3.203v5.766h1.922zm4.469-8.328v10.891h3.203V8.875H9.594zm0-4.469v3.187h3.203V4.406H9.594zm4.484 4.469h8.328v14.719h-8.328v-2.547h5.125v-1.281h-5.125V8.875zm5.125 8.328v-5.766h-1.922v5.766h1.922zm4.485-8.328h8.313v14.719h-8.313v-2.547h5.109v-1.281h-5.109V8.875zm5.109 8.328v-5.766h-1.922v5.766h1.922z"/></symbol><symbol viewBox="0 0 24 28" id="dribbble" xmlns="http://www.w3.org/2000/svg"><path d="M16 23.438c-.156-.906-.75-4.031-2.188-7.781-.016 0-.047.016-.063.016 0 0-6.078 2.125-8.047 6.406-.094-.078-.234-.172-.234-.172a10.297 10.297 0 0 0 6.531 2.344c1.422 0 2.766-.297 4-.812zm-2.891-9.485a29.025 29.025 0 0 0-.828-1.734C7 13.797 1.937 13.672 1.765 13.672c-.016.109-.016.219-.016.328 0 2.625 1 5.031 2.625 6.844 2.797-4.984 8.328-6.766 8.328-6.766.141-.047.281-.078.406-.125zm-1.671-3.312a61.656 61.656 0 0 0-3.813-5.906 10.267 10.267 0 0 0-5.656 7.156c.266 0 4.547.047 9.469-1.25zm10.687 4.984c-.219-.063-3.078-.969-6.391-.453 1.344 3.703 1.891 6.719 2 7.328a10.293 10.293 0 0 0 4.391-6.875zM9.547 4.047c-.016 0-.016 0-.031.016 0 0 .016-.016.031-.016zm9.219 2.265a10.17 10.17 0 0 0-9.188-2.265c.156.203 2.094 2.75 3.844 5.969 3.859-1.437 5.313-3.656 5.344-3.703zm3.484 7.579a10.273 10.273 0 0 0-2.328-6.406c-.031.031-1.672 2.406-5.719 4.062.234.484.469.984.688 1.484.078.172.141.359.219.531 3.531-.453 7.016.313 7.141.328zM24 14c0 6.625-5.375 12-12 12S0 20.625 0 14 5.375 2 12 2s12 5.375 12 12z"/></symbol><symbol viewBox="0 0 28 28" id="dropbox" xmlns="http://www.w3.org/2000/svg"><path d="M6.281 11.047L14 15.813l-5.344 4.453L1 15.282zm15.407 8.672v1.687l-7.656 4.578V26l-.016-.016L14 26v-.016l-7.641-4.578v-1.687l2.297 1.5L14 16.781v-.031l.016.016.016-.016v.031l5.359 4.438zM8.656 1.844L14 6.297l-7.719 4.75L1 6.828zm13.063 9.203L27 15.281l-7.641 4.984L14 15.812zm-2.36-9.203L27 6.828l-5.281 4.219L14 6.297z"/></symbol><symbol viewBox="0 0 28 28" id="email" xmlns="http://www.w3.org/2000/svg"><path d="M28 11.094V23.5c0 1.375-1.125 2.5-2.5 2.5h-23A2.507 2.507 0 0 1 0 23.5V11.094c.469.516 1 .969 1.578 1.359 2.594 1.766 5.219 3.531 7.766 5.391 1.313.969 2.938 2.156 4.641 2.156h.031c1.703 0 3.328-1.188 4.641-2.156 2.547-1.844 5.172-3.625 7.781-5.391a9.278 9.278 0 0 0 1.563-1.359zM28 6.5c0 1.75-1.297 3.328-2.672 4.281-2.438 1.687-4.891 3.375-7.313 5.078-1.016.703-2.734 2.141-4 2.141h-.031c-1.266 0-2.984-1.437-4-2.141-2.422-1.703-4.875-3.391-7.297-5.078-1.109-.75-2.688-2.516-2.688-3.938 0-1.531.828-2.844 2.5-2.844h23c1.359 0 2.5 1.125 2.5 2.5z"/></symbol><symbol viewBox="0 0 16 28" id="facebook" xmlns="http://www.w3.org/2000/svg"><path d="M14.984.187v4.125h-2.453c-1.922 0-2.281.922-2.281 2.25v2.953h4.578l-.609 4.625H10.25v11.859H5.469V14.14H1.485V9.515h3.984V6.109C5.469 2.156 7.891 0 11.422 0c1.687 0 3.141.125 3.563.187z"/></symbol><symbol viewBox="0 0 24 28" id="flickr" xmlns="http://www.w3.org/2000/svg"><path d="M19.5 2C21.984 2 24 4.016 24 6.5v15c0 2.484-2.016 4.5-4.5 4.5h-15A4.502 4.502 0 0 1 0 21.5v-15C0 4.016 2.016 2 4.5 2h15zm-8.594 12a3.314 3.314 0 1 0-3.313 3.313A3.314 3.314 0 0 0 10.906 14zm8.813 0a3.314 3.314 0 1 0-3.313 3.313A3.314 3.314 0 0 0 19.719 14z"/></symbol><symbol viewBox="0 0 20 28" id="foursquare" xmlns="http://www.w3.org/2000/svg"><path d="M15.625 6.781l.578-3.031a.717.717 0 0 0-.688-.891H4.39c-.5 0-.844.453-.844.844v17.203c0 .047.047.063.094.016 4.094-4.922 4.547-5.5 4.547-5.5.469-.547.656-.641 1.344-.641h3.734c.516 0 .812-.438.859-.688s.484-2.531.578-2.984-.328-.922-.75-.922H9.358c-.609 0-1.047-.438-1.047-1.047v-.656c0-.609.438-1.031 1.047-1.031h5.406c.375 0 .797-.344.859-.672zm3.547-3.468c-.578 2.812-2.312 11.703-2.469 12.344-.187.734-.469 2.016-2.25 2.016h-4.234c-.172 0-.187-.016-.344.156l-6.656 7.719c-.516.594-1.359.484-1.672.359s-.859-.5-.859-1.531V2.345c0-.906.562-2.344 2.469-2.344h13.875c2.031 0 2.578 1.156 2.141 3.313zm0 0l-2.469 12.344c.156-.641 1.891-9.531 2.469-12.344z"/></symbol><symbol viewBox="0 0 24 28" id="github" xmlns="http://www.w3.org/2000/svg"><path d="M12 2c6.625 0 12 5.375 12 12 0 5.297-3.437 9.797-8.203 11.391-.609.109-.828-.266-.828-.578 0-.391.016-1.687.016-3.297 0-1.125-.375-1.844-.812-2.219 2.672-.297 5.484-1.313 5.484-5.922 0-1.313-.469-2.375-1.234-3.219.125-.313.531-1.531-.125-3.187-1-.313-3.297 1.234-3.297 1.234a11.28 11.28 0 0 0-6 0S6.704 6.656 5.704 6.969c-.656 1.656-.25 2.875-.125 3.187-.766.844-1.234 1.906-1.234 3.219 0 4.594 2.797 5.625 5.469 5.922-.344.313-.656.844-.766 1.609-.688.313-2.438.844-3.484-1-.656-1.141-1.844-1.234-1.844-1.234-1.172-.016-.078.734-.078.734.781.359 1.328 1.75 1.328 1.75.703 2.141 4.047 1.422 4.047 1.422 0 1 .016 1.937.016 2.234 0 .313-.219.688-.828.578C3.439 23.796.002 19.296.002 13.999c0-6.625 5.375-12 12-12zM4.547 19.234c.031-.063-.016-.141-.109-.187-.094-.031-.172-.016-.203.031-.031.063.016.141.109.187.078.047.172.031.203-.031zm.484.532c.063-.047.047-.156-.031-.25-.078-.078-.187-.109-.25-.047-.063.047-.047.156.031.25.078.078.187.109.25.047zm.469.703c.078-.063.078-.187 0-.297-.063-.109-.187-.156-.266-.094-.078.047-.078.172 0 .281s.203.156.266.109zm.656.656c.063-.063.031-.203-.063-.297-.109-.109-.25-.125-.313-.047-.078.063-.047.203.063.297.109.109.25.125.313.047zm.891.391c.031-.094-.063-.203-.203-.25-.125-.031-.266.016-.297.109s.063.203.203.234c.125.047.266 0 .297-.094zm.984.078c0-.109-.125-.187-.266-.172-.141 0-.25.078-.25.172 0 .109.109.187.266.172.141 0 .25-.078.25-.172zm.906-.156c-.016-.094-.141-.156-.281-.141-.141.031-.234.125-.219.234.016.094.141.156.281.125s.234-.125.219-.219z"/></symbol><symbol viewBox="0 0 24 28" id="google" xmlns="http://www.w3.org/2000/svg"><path d="M12 12.281h11.328c.109.609.187 1.203.187 2C23.515 21.125 18.921 26 11.999 26c-6.641 0-12-5.359-12-12s5.359-12 12-12c3.234 0 5.953 1.188 8.047 3.141L16.78 8.282c-.891-.859-2.453-1.859-4.781-1.859-4.094 0-7.438 3.391-7.438 7.578s3.344 7.578 7.438 7.578c4.75 0 6.531-3.406 6.813-5.172h-6.813v-4.125z"/></symbol><symbol viewBox="0 0 36 28" id="google-plus" xmlns="http://www.w3.org/2000/svg"><path d="M22.453 14.266c0 6.547-4.391 11.188-11 11.188C5.125 25.454 0 20.329 0 14.001S5.125 2.548 11.453 2.548c3.094 0 5.672 1.125 7.672 3l-3.109 2.984c-.844-.812-2.328-1.766-4.562-1.766C7.548 6.766 4.36 10 4.36 14s3.187 7.234 7.094 7.234c4.531 0 6.234-3.266 6.5-4.937h-6.5v-3.938h10.813c.109.578.187 1.156.187 1.906zM36 12.359v3.281h-3.266v3.266h-3.281V15.64h-3.266v-3.281h3.266V9.093h3.281v3.266H36z"/></symbol><symbol viewBox="0 0 512 512" id="heart" xmlns="http://www.w3.org/2000/svg"><path d="M256 448l-30.164-27.211C118.718 322.442 48 258.61 48 179.095 48 114.221 97.918 64 162.4 64c36.399 0 70.717 16.742 93.6 43.947C278.882 80.742 313.199 64 349.6 64 414.082 64 464 114.221 464 179.095c0 79.516-70.719 143.348-177.836 241.694L256 448z"/></symbol><symbol viewBox="0 0 24 28" id="instagram" xmlns="http://www.w3.org/2000/svg"><path d="M16 14c0-2.203-1.797-4-4-4s-4 1.797-4 4 1.797 4 4 4 4-1.797 4-4zm2.156 0c0 3.406-2.75 6.156-6.156 6.156S5.844 17.406 5.844 14 8.594 7.844 12 7.844s6.156 2.75 6.156 6.156zm1.688-6.406c0 .797-.641 1.437-1.437 1.437S16.97 8.39 16.97 7.594s.641-1.437 1.437-1.437 1.437.641 1.437 1.437zM12 4.156c-1.75 0-5.5-.141-7.078.484-.547.219-.953.484-1.375.906s-.688.828-.906 1.375c-.625 1.578-.484 5.328-.484 7.078s-.141 5.5.484 7.078c.219.547.484.953.906 1.375s.828.688 1.375.906c1.578.625 5.328.484 7.078.484s5.5.141 7.078-.484c.547-.219.953-.484 1.375-.906s.688-.828.906-1.375c.625-1.578.484-5.328.484-7.078s.141-5.5-.484-7.078c-.219-.547-.484-.953-.906-1.375s-.828-.688-1.375-.906C17.5 4.015 13.75 4.156 12 4.156zM24 14c0 1.656.016 3.297-.078 4.953-.094 1.922-.531 3.625-1.937 5.031s-3.109 1.844-5.031 1.937c-1.656.094-3.297.078-4.953.078s-3.297.016-4.953-.078c-1.922-.094-3.625-.531-5.031-1.937S.173 20.875.08 18.953C-.014 17.297.002 15.656.002 14s-.016-3.297.078-4.953c.094-1.922.531-3.625 1.937-5.031s3.109-1.844 5.031-1.937c1.656-.094 3.297-.078 4.953-.078s3.297-.016 4.953.078c1.922.094 3.625.531 5.031 1.937s1.844 3.109 1.937 5.031C24.016 10.703 24 12.344 24 14z"/></symbol><symbol viewBox="0 0 28 28" id="lastfm" xmlns="http://www.w3.org/2000/svg"><path d="M20.188 11c0 .094.125.531.156.641.422 1.281 1.406 1.547 2.578 1.875C25.531 14.25 28 15.641 28 18.703 28 21.812 25.406 24 22.375 24c-5.031 0-6.594-6.156-8.047-9.906C13.125 11 11.859 9.188 8.375 9.188c-3.094 0-5.812 2.969-5.812 6.016 0 3.234 2.422 6.234 5.781 6.234 1.484 0 3.031-.313 4.031-1.484.484-.547.953-1.141 1.297-1.813l1.313 2.375a4.943 4.943 0 0 1-.688 1.094l.016.016c-1.578 1.828-3.734 2.375-6.062 2.375-4.719 0-8.25-4.172-8.25-8.766 0-4.453 3.875-8.594 8.375-8.594 7.469 0 7.844 6.469 10.375 11.672.688 1.437 1.859 3.125 3.641 3.125 1.625 0 3.063-1.047 3.063-2.766 0-3.719-6.828-1.188-7.797-7.297a2.904 2.904 0 0 1-.047-.516c0-2.312 2.172-4.297 4.469-4.219 1.375.047 2.203.094 3.297 1.062h-.016c.422.391.734.922 1.062 1.375l-2.016 1.547c-.234-.438-.453-.797-.844-1.094v-.016c-.375-.344-1.047-.328-1.516-.328-1.016 0-1.859.766-1.859 1.813z"/></symbol><symbol viewBox="0 0 24 28" id="linkedin" xmlns="http://www.w3.org/2000/svg"><path d="M5.453 9.766V25.25H.297V9.766h5.156zm.328-4.782c.016 1.484-1.109 2.672-2.906 2.672h-.031C1.11 7.656 0 6.468 0 4.984c0-1.516 1.156-2.672 2.906-2.672 1.766 0 2.859 1.156 2.875 2.672zM24 16.375v8.875h-5.141v-8.281c0-2.078-.75-3.5-2.609-3.5-1.422 0-2.266.953-2.641 1.875-.125.344-.172.797-.172 1.266v8.641H8.296c.063-14.031 0-15.484 0-15.484h5.141v2.25h-.031c.672-1.062 1.891-2.609 4.672-2.609 3.391 0 5.922 2.219 5.922 6.969z"/></symbol><symbol viewBox="0 0 12 28" id="long-arrow-down" xmlns="http://www.w3.org/2000/svg"><path d="M11.953 20.297a.534.534 0 0 1-.078.547l-5.469 6a.508.508 0 0 1-.359.156.549.549 0 0 1-.375-.156l-5.547-6a.534.534 0 0 1-.078-.547A.5.5 0 0 1 .5 20H4V.5c0-.281.219-.5.5-.5h3c.281 0 .5.219.5.5V20h3.5c.203 0 .375.109.453.297z"/></symbol><symbol viewBox="0 0 29 28" id="long-arrow-left" xmlns="http://www.w3.org/2000/svg"><path d="M28 12.5v3c0 .281-.219.5-.5.5H8v3.5c0 .203-.109.375-.297.453s-.391.047-.547-.078l-6-5.469A.508.508 0 0 1 1 14.047c0-.141.063-.281.156-.375l6-5.531A.5.5 0 1 1 8 8.5V12h19.5c.281 0 .5.219.5.5z"/></symbol><symbol viewBox="0 0 27 28" id="long-arrow-right" xmlns="http://www.w3.org/2000/svg"><path d="M27 13.953a.549.549 0 0 1-.156.375l-6 5.531A.5.5 0 1 1 20 19.5V16H.5a.494.494 0 0 1-.5-.5v-3c0-.281.219-.5.5-.5H20V8.5c0-.203.109-.375.297-.453s.391-.047.547.078l6 5.469a.508.508 0 0 1 .156.359z"/></symbol><symbol viewBox="0 0 12 28" id="long-arrow-up" xmlns="http://www.w3.org/2000/svg"><path d="M11.953 7.703A.5.5 0 0 1 11.5 8H8v19.5c0 .281-.219.5-.5.5h-3a.494.494 0 0 1-.5-.5V8H.5c-.203 0-.375-.109-.453-.297S0 7.312.125 7.156l5.469-6A.508.508 0 0 1 5.953 1c.141 0 .281.063.375.156l5.547 6a.534.534 0 0 1 .078.547z"/></symbol><symbol viewBox="0 0 28 28" id="map" xmlns="http://www.w3.org/2000/svg"><path d="M8 0c.266 0 .5.234.5.5v23a.496.496 0 0 1-.266.438l-7.5 4a.44.44 0 0 1-.234.063.514.514 0 0 1-.5-.5v-23c0-.187.109-.359.266-.438l7.5-4A.44.44 0 0 1 8 0zm19.5 0c.266 0 .5.234.5.5v23a.496.496 0 0 1-.266.438l-7.5 4a.44.44 0 0 1-.234.063.514.514 0 0 1-.5-.5v-23c0-.187.109-.359.266-.438l7.5-4A.44.44 0 0 1 27.5 0zM10 0c.078 0 .156.016.219.047l8 4a.522.522 0 0 1 .281.453v23c0 .266-.234.5-.5.5a.506.506 0 0 1-.219-.047l-8-4A.522.522 0 0 1 9.5 23.5V.5c0-.266.234-.5.5-.5z"/></symbol><symbol viewBox="0 0 28 28" id="medium" xmlns="http://www.w3.org/2000/svg"><path d="M9.328 6.578v18.328c0 .484-.234.938-.766.938a1.15 1.15 0 0 1-.516-.125L.78 22.078c-.438-.219-.781-.781-.781-1.25V3.015c0-.391.187-.75.609-.75.25 0 .469.125.688.234l7.984 4a.21.21 0 0 1 .047.078zm1 1.578l8.344 13.531-8.344-4.156V8.156zM28 8.437v16.469c0 .516-.297.875-.812.875-.266 0-.516-.078-.734-.203l-6.891-3.437zm-.047-1.874c0 .063-8.078 13.172-8.703 14.172l-6.094-9.906 5.063-8.234a.943.943 0 0 1 .812-.438c.141 0 .281.031.406.094L27.89 6.47c.031.016.063.047.063.094z"/></symbol><symbol viewBox="0 0 30 28" id="meetup" xmlns="http://www.w3.org/2000/svg"><path d="M20.844 19.281c-.172-1.125-2.234-.25-2.359-1.484-.172-1.75 2.391-5.531 2.188-7-.187-1.313-1.062-1.594-1.828-1.609-.734-.016-.922.109-1.172.25-.156.094-.359.266-.641-.016-.344-.328-.609-.641-1.062-.703-.672-.109-.969.109-1.453.531-.187.156-.656.703-1.094.5a30.192 30.192 0 0 0-1.313-.625c-.891-.391-2.188.25-2.656 1.094-.703 1.25-2.078 6.188-2.281 6.844-.469 1.453.594 2.656 2.016 2.578.609-.031 1-.25 1.391-.953.219-.406 2.281-5.891 2.438-6.156.109-.187.484-.438.797-.281.313.172.375.516.328.828-.063.531-1.531 3.875-1.578 4.25-.187 1.25 1.469 1.453 2.109.219.203-.391 2.5-5.063 2.703-5.375.234-.344.406-.453.641-.438.172 0 .453.047.391.594-.078.516-1.922 3.953-2.125 4.797-.25 1.125.359 2.266 1.359 2.766.625.313 3.422.859 3.203-.609zm-14.86 3.375a.56.56 0 0 1-.438.672.551.551 0 0 1-.656-.438c-.063-.297.125-.609.422-.672s.609.125.672.438zm8.907 4.11a.794.794 0 0 1-.187 1.094.783.783 0 0 1-1.094-.203.812.812 0 0 1 .203-1.094.762.762 0 0 1 1.078.203zM2.766 14.078a1.178 1.178 0 0 1-1.672.313 1.222 1.222 0 0 1-.313-1.687 1.194 1.194 0 0 1 1.672-.328c.547.391.688 1.141.313 1.703zm20.156 10.578c.391.578.25 1.375-.328 1.781-.578.391-1.359.25-1.75-.328s-.25-1.375.313-1.781c.578-.406 1.359-.25 1.766.328zm1.75-9.437c1.437 2.359.828 5.469-1.437 7.063a5.088 5.088 0 0 1-3.109.938c-.656 2.578-3.797 3.531-5.75 1.781-.063.047-.141.094-.203.156a4.658 4.658 0 0 1-6.531-1.219 4.84 4.84 0 0 1-.828-2.562c-3.578-.594-4.922-5.141-2.25-7.641-1.547-2.562.031-5.875 2.922-6.281 1.375-3.625 5.891-5.344 8.953-2.969 3.687-1.219 7.453 1.609 7.156 5.531 2.25.688 2.891 3.656 1.078 5.203zM7.109 4.906c.281.422.187 1-.234 1.297-.406.281-.984.187-1.266-.234s-.187-1 .234-1.297a.909.909 0 0 1 1.266.234zM9.594.516c.078.344-.141.688-.484.766s-.688-.141-.766-.5c-.063-.344.156-.688.5-.766s.688.141.75.5zm18.531 14.812a.748.748 0 0 1-.578.906.741.741 0 0 1-.891-.578.772.772 0 0 1 .578-.922.763.763 0 0 1 .891.594zM17.75 1.375a1.22 1.22 0 0 1-.422 1.656 1.175 1.175 0 0 1-1.625-.406c-.344-.578-.156-1.328.406-1.672s1.297-.156 1.641.422zm11.656 10.25a.574.574 0 0 1-.422.688.576.576 0 0 1-.234-1.126.551.551 0 0 1 .656.438zm-2.984-3.766a1.057 1.057 0 0 1-.25 1.437c-.469.313-1.109.203-1.422-.266s-.203-1.109.266-1.437a.995.995 0 0 1 1.406.266z"/></symbol><symbol viewBox="0 0 22 28" id="pagelines" xmlns="http://www.w3.org/2000/svg"><path d="M21.906 17.234c-3.141 7.797-10.672 3.078-10.672 3.078C8.922 24.984 5.109 27.984.703 28A.7.7 0 0 1 0 27.297c0-.39.313-.688.703-.688 3.672-.016 6.875-2.438 8.969-6.281-2.344.906-6.766 1.594-9.219-4.688 6.219-2.562 9.078.641 10.172 2.594.562-1.391.969-2.906 1.234-4.547 0 0-7.969 1.25-8.531-5.594 6.797-2.734 8.703 4.375 8.703 4.375.094-.953.187-3 .187-3.047 0 0-6.062-4.203-2.172-9.422 7.109 2.453 3.5 9.266 3.5 9.266.031.094.031 1.359 0 1.906 0 0 2.578-5.078 7.781-3.281-.234 7.641-8.094 6.062-8.094 6.062a24.097 24.097 0 0 1-1.141 4.422s4.734-5.234 9.812-1.141z"/></symbol><symbol viewBox="0 0 22 28" id="phone" xmlns="http://www.w3.org/2000/svg"><path d="M22 19.375c0 .562-.25 1.656-.484 2.172-.328.766-1.203 1.266-1.906 1.656-.922.5-1.859.797-2.906.797-1.453 0-2.766-.594-4.094-1.078a14.627 14.627 0 0 1-2.734-1.297c-2.656-1.641-5.859-4.844-7.5-7.5a14.627 14.627 0 0 1-1.297-2.734C.595 10.063.001 8.75.001 7.297c0-1.047.297-1.984.797-2.906.391-.703.891-1.578 1.656-1.906.516-.234 1.609-.484 2.172-.484.109 0 .219 0 .328.047.328.109.672.875.828 1.188.5.891.984 1.797 1.5 2.672.25.406.719.906.719 1.391 0 .953-2.828 2.344-2.828 3.187 0 .422.391.969.609 1.344 1.578 2.844 3.547 4.813 6.391 6.391.375.219.922.609 1.344.609.844 0 2.234-2.828 3.187-2.828.484 0 .984.469 1.391.719.875.516 1.781 1 2.672 1.5.313.156 1.078.5 1.188.828.047.109.047.219.047.328z"/></symbol><symbol viewBox="0 0 24 28" id="pinterest" xmlns="http://www.w3.org/2000/svg"><path d="M24 14c0 6.625-5.375 12-12 12-1.188 0-2.312-.172-3.406-.5.453-.719.969-1.641 1.219-2.562 0 0 .141-.531.844-3.297.406.797 1.625 1.5 2.922 1.5 3.859 0 6.484-3.516 6.484-8.234 0-3.547-3.016-6.875-7.609-6.875-5.688 0-8.563 4.094-8.563 7.5 0 2.063.781 3.906 2.453 4.594.266.109.516 0 .594-.313.063-.203.187-.734.25-.953.078-.313.047-.406-.172-.672-.484-.578-.797-1.313-.797-2.359 0-3.031 2.266-5.75 5.906-5.75 3.219 0 5 1.969 5 4.609 0 3.453-1.531 6.375-3.813 6.375-1.25 0-2.188-1.031-1.891-2.312.359-1.516 1.062-3.156 1.062-4.25 0-.984-.531-1.813-1.625-1.813-1.281 0-2.312 1.328-2.312 3.109 0 0 0 1.141.391 1.906-1.313 5.563-1.547 6.531-1.547 6.531-.219.906-.234 1.922-.203 2.766A12.002 12.002 0 0 1 0 14C0 7.375 5.375 2 12 2s12 5.375 12 12z"/></symbol><symbol viewBox="0 0 22 28" id="play" xmlns="http://www.w3.org/2000/svg"><path d="M21.625 14.484L.875 26.015c-.484.266-.875.031-.875-.516v-23c0-.547.391-.781.875-.516l20.75 11.531c.484.266.484.703 0 .969z"/></symbol><symbol viewBox="0 0 24 28" id="renren" xmlns="http://www.w3.org/2000/svg"><path d="M17.703 24.531A11.86 11.86 0 0 1 11.953 26c-2.078 0-4.031-.531-5.734-1.469 2.766-1.75 5-4.391 5.734-7.484.75 3.094 2.984 5.734 5.75 7.484zM9.969 2.219v7.578c0 5.344-2.953 9.938-7.141 11.969A11.933 11.933 0 0 1 0 14.032C0 8.094 4.312 3.173 9.969 2.219zM24 14.031c0 2.953-1.062 5.641-2.828 7.734-4.188-2.031-7.141-6.625-7.141-11.969V2.218C19.687 3.171 24 8.093 24 14.031z"/></symbol><symbol viewBox="0 0 26 28" id="search" xmlns="http://www.w3.org/2000/svg"><path d="M18 13c0-3.859-3.141-7-7-7s-7 3.141-7 7 3.141 7 7 7 7-3.141 7-7zm8 13c0 1.094-.906 2-2 2a1.96 1.96 0 0 1-1.406-.594l-5.359-5.344a10.971 10.971 0 0 1-6.234 1.937c-6.078 0-11-4.922-11-11s4.922-11 11-11 11 4.922 11 11c0 2.219-.672 4.406-1.937 6.234l5.359 5.359c.359.359.578.875.578 1.406z"/></symbol><symbol viewBox="0 0 24 28" id="skype" xmlns="http://www.w3.org/2000/svg"><path d="M18.328 16.609c0-2.719-2.641-3.656-4.859-4.156l-1.625-.375c-1.188-.281-2.078-.484-2.078-1.391 0-.828.875-1.203 2.25-1.203 2.453 0 2.5 1.797 4.016 1.797 1.016 0 1.625-.797 1.625-1.703 0-1.797-2.984-2.969-5.938-2.969-2.703 0-5.844 1.172-5.844 4.344 0 2.625 1.75 3.563 4.031 4.109l2.281.562c1.391.344 2.25.5 2.25 1.5 0 .797-.891 1.406-2.266 1.406-2.891 0-3.047-2.406-4.719-2.406-1.094 0-1.578.781-1.578 1.641 0 1.922 2.938 3.484 6.453 3.484 2.938 0 6-1.469 6-4.641zM24 20c0 3.313-2.688 6-6 6a5.976 5.976 0 0 1-3.656-1.25c-.75.156-1.547.25-2.344.25-6.078 0-11-4.922-11-11 0-.797.094-1.594.25-2.344A5.978 5.978 0 0 1 0 8c0-3.313 2.688-6 6-6 1.375 0 2.641.469 3.656 1.25C10.406 3.094 11.203 3 12 3c6.078 0 11 4.922 11 11 0 .797-.094 1.594-.25 2.344A5.978 5.978 0 0 1 24 20z"/></symbol><symbol viewBox="0 0 26 28" id="slack" xmlns="http://www.w3.org/2000/svg"><path d="M23.734 12.125c1.281 0 2.266.938 2.266 2.219 0 1-.516 1.703-1.453 2.031l-2.688.922.875 2.609c.078.234.109.484.109.734 0 1.234-1 2.266-2.234 2.266a2.271 2.271 0 0 1-2.172-1.547l-.859-2.578-4.844 1.656.859 2.562c.078.234.125.484.125.734 0 1.219-1 2.266-2.25 2.266a2.25 2.25 0 0 1-2.156-1.547l-.859-2.547-2.391.828c-.25.078-.516.141-.781.141-1.266 0-2.219-.938-2.219-2.203 0-.969.625-1.844 1.547-2.156l2.438-.828-1.641-4.891-2.438.844c-.25.078-.5.125-.75.125-1.25 0-2.219-.953-2.219-2.203 0-.969.625-1.844 1.547-2.156l2.453-.828-.828-2.484a2.337 2.337 0 0 1-.125-.734c0-1.234 1-2.266 2.25-2.266a2.25 2.25 0 0 1 2.156 1.547l.844 2.5L13.14 5.5 12.296 3a2.337 2.337 0 0 1-.125-.734c0-1.234 1.016-2.266 2.25-2.266.984 0 1.859.625 2.172 1.547l.828 2.516 2.531-.859c.219-.063.438-.094.672-.094 1.219 0 2.266.906 2.266 2.156 0 .969-.75 1.781-1.625 2.078l-2.453.844 1.641 4.937 2.562-.875a2.32 2.32 0 0 1 .719-.125zm-12.406 4.094l4.844-1.641-1.641-4.922-4.844 1.672z"/></symbol><symbol viewBox="0 0 26 28" id="snapchat-ghost" xmlns="http://www.w3.org/2000/svg"><path d="M13.25 2c2.812-.031 5.141 1.547 6.312 4.078.359.766.422 1.953.422 2.797 0 1-.078 1.984-.141 2.984.125.063.297.109.438.109.562 0 1.031-.422 1.594-.422.531 0 1.297.375 1.297 1 0 1.5-3.141 1.219-3.141 2.531 0 .234.094.453.187.672.75 1.641 2.172 3.219 3.859 3.922.406.172.812.266 1.25.359a.527.527 0 0 1 .438.547c0 1.062-2.703 1.5-3.422 1.609-.313.484-.078 1.625-.906 1.625-.641 0-1.281-.203-1.969-.203-.328 0-.656.016-.969.078-1.859.313-2.484 2.312-5.531 2.312-2.938 0-3.641-2-5.453-2.312a5.183 5.183 0 0 0-.984-.078c-.703 0-1.375.234-1.937.234-.875 0-.609-1.156-.938-1.656-.719-.109-3.422-.547-3.422-1.609 0-.281.156-.484.438-.547.438-.094.844-.187 1.25-.359 1.672-.688 3.125-2.281 3.859-3.922.094-.219.187-.438.187-.672 0-1.313-3.156-1.062-3.156-2.516 0-.609.719-1 1.266-1 .484 0 .969.406 1.578.406.172 0 .344-.031.5-.109-.063-.984-.141-1.969-.141-2.969 0-.844.063-2.047.422-2.812C7.812 3.108 10.14 2.03 13.25 1.999z"/></symbol><symbol viewBox="0 0 36 28" id="soundcloud" xmlns="http://www.w3.org/2000/svg"><path d="M12.25 21.438l.25-3.766-.25-8.172c-.016-.203-.172-.375-.375-.375-.187 0-.359.172-.359.375l-.219 8.172.219 3.766c.016.203.172.359.359.359a.377.377 0 0 0 .375-.359zm4.625-.454l.172-3.297-.187-9.156a.44.44 0 0 0-.203-.375c-.078-.047-.156-.078-.25-.078s-.172.031-.25.078a.44.44 0 0 0-.203.375l-.016.094-.156 9.047.172 3.687v.016c0 .094.031.187.094.266a.47.47 0 0 0 .359.172.453.453 0 0 0 .313-.141.392.392 0 0 0 .141-.313zM.547 15.672l.313 2-.313 1.969c-.016.078-.063.141-.141.141s-.125-.063-.141-.141l-.266-1.969.266-2c.016-.078.063-.141.141-.141s.125.063.141.141zm1.344-1.234l.406 3.234-.406 3.172c-.016.078-.078.141-.156.141s-.141-.063-.141-.156l-.359-3.156.359-3.234c0-.078.063-.141.141-.141s.141.063.156.141zm4.375 7.078zm-2.938-7.672l.391 3.828-.391 3.703c0 .094-.078.172-.172.172s-.172-.078-.187-.172l-.328-3.703.328-3.828c.016-.109.094-.187.187-.187s.172.078.172.187zm1.469-.11l.359 3.938-.359 3.813c-.016.125-.109.203-.219.203s-.203-.078-.203-.203l-.328-3.813.328-3.938c0-.125.094-.203.203-.203s.203.078.219.203zm1.469.282l.328 3.656-.328 3.844c-.016.141-.125.25-.25.25s-.234-.109-.234-.25l-.313-3.844.313-3.656c0-.125.109-.234.234-.234s.234.109.25.234zm5.984 7.422zm-4.516-9.704l.328 5.938-.328 3.844c0 .156-.125.281-.266.281-.156 0-.266-.125-.281-.281l-.281-3.844.281-5.938c.016-.156.125-.281.281-.281.141 0 .266.125.266.281zm1.469-1.343l.297 7.313-.297 3.813a.297.297 0 0 1-.297.297c-.172 0-.297-.125-.313-.297l-.25-3.813.25-7.313c.016-.172.141-.297.313-.297.156 0 .297.125.297.297zm1.531-.625l.281 7.906-.281 3.781a.344.344 0 0 1-.344.328c-.172 0-.313-.141-.328-.328l-.25-3.781.25-7.906c0-.187.156-.344.328-.344.187 0 .328.156.344.344zm6.125 11.593zM13.766 9.703L14 17.672l-.234 3.734c0 .219-.172.391-.391.391s-.375-.172-.391-.391l-.219-3.734.219-7.969c0-.219.172-.391.391-.391s.391.172.391.391zm1.547.297l.219 7.688-.219 3.687c0 .234-.187.422-.422.422s-.422-.187-.438-.422l-.187-3.687.187-7.688c.016-.25.203-.438.438-.438s.406.187.422.438zm3.312 7.687l-.219 3.609c0 .266-.219.484-.484.484s-.484-.219-.5-.484l-.094-1.781-.094-1.828.187-9.938v-.047a.581.581 0 0 1 .187-.375.5.5 0 0 1 .313-.109c.078 0 .172.031.234.078a.516.516 0 0 1 .25.406zM36 17.391c0 2.438-1.984 4.406-4.422 4.406H19.297c-.266-.031-.484-.234-.484-.516V7.234c0-.266.094-.391.438-.516a7.645 7.645 0 0 1 2.828-.531c4.078 0 7.422 3.125 7.781 7.109a4.43 4.43 0 0 1 6.141 4.094z"/></symbol><symbol viewBox="0 0 24 28" id="spotify" xmlns="http://www.w3.org/2000/svg"><path d="M17.609 18.906c0-.438-.172-.609-.469-.797-2.016-1.203-4.359-1.797-6.984-1.797-1.531 0-3 .203-4.484.531-.359.078-.656.313-.656.812 0 .391.297.766.766.766.141 0 .391-.078.578-.125 1.219-.25 2.5-.422 3.797-.422 2.297 0 4.469.562 6.203 1.609.187.109.313.172.516.172a.737.737 0 0 0 .734-.75zm1.5-3.359c0-.422-.156-.719-.547-.953-2.391-1.422-5.422-2.203-8.563-2.203-2.016 0-3.391.281-4.734.656-.5.141-.75.484-.75 1s.422.938.938.938c.219 0 .344-.063.578-.125a14.913 14.913 0 0 1 3.922-.516c2.969 0 5.672.781 7.625 1.937.172.094.344.203.594.203a.931.931 0 0 0 .938-.938zm1.688-3.875c0-.578-.25-.875-.625-1.094C17.469 9 13.766 8.266 10.234 8.266c-2.078 0-3.984.234-5.688.734-.438.125-.844.5-.844 1.156 0 .641.484 1.141 1.125 1.141.234 0 .453-.078.625-.125 1.516-.422 3.156-.578 4.797-.578 3.25 0 6.625.719 8.797 2.016.219.125.375.187.625.187a1.12 1.12 0 0 0 1.125-1.125zM24 14c0 6.625-5.375 12-12 12S0 20.625 0 14 5.375 2 12 2s12 5.375 12 12z"/></symbol><symbol viewBox="0 0 24 28" id="stack-overflow" xmlns="http://www.w3.org/2000/svg"><path d="M20.141 25.5H2.672V18h-2.5v10h22.469V18h-2.5v7.5zM5.422 17.313l.516-2.453 12.234 2.578-.516 2.438zm1.609-5.844l1.047-2.281 11.328 5.297-1.047 2.266zm3.141-5.563l1.594-1.922L21.36 12l-1.594 1.922zM16.375 0l7.453 10.016-2 1.5L14.375 1.5zM5.156 22.984V20.5h12.5v2.484h-12.5z"/></symbol><symbol viewBox="0 0 28 28" id="steam" xmlns="http://www.w3.org/2000/svg"><path d="M24.719 9.094a3.819 3.819 0 0 1-3.813 3.813c-2.109 0-3.813-1.703-3.813-3.813s1.703-3.813 3.813-3.813a3.818 3.818 0 0 1 3.813 3.813zM12.688 20.687a3.887 3.887 0 0 0-3.906-3.906c-.281 0-.562.031-.844.094l1.625.656c1.594.641 2.375 2.438 1.734 4.031s-2.453 2.375-4.047 1.719c-.641-.25-1.281-.516-1.922-.766a3.906 3.906 0 0 0 3.453 2.078 3.887 3.887 0 0 0 3.906-3.906zM25.656 9.109a4.775 4.775 0 0 0-4.766-4.766c-2.641 0-4.781 2.141-4.781 4.766a4.768 4.768 0 0 0 4.781 4.766 4.765 4.765 0 0 0 4.766-4.766zm2.344 0a7.104 7.104 0 0 1-7.109 7.109l-6.828 4.984c-.25 2.688-2.531 4.797-5.281 4.797-2.531 0-4.672-1.797-5.187-4.188L.001 20.374v-6.703l6.078 2.453a5.175 5.175 0 0 1 3.25-.719l4.438-6.359c.031-3.891 3.219-7.047 7.125-7.047a7.114 7.114 0 0 1 7.109 7.109z"/></symbol><symbol viewBox="0 0 30 28" id="stumbleupon" xmlns="http://www.w3.org/2000/svg"><path d="M16.594 11.125V9.281c0-.875-.719-1.594-1.594-1.594s-1.594.719-1.594 1.594v9.562c0 3.656-3.031 6.609-6.703 6.609C3 25.452 0 22.452 0 18.749v-4.156h5.125v4.094c0 .891.719 1.594 1.594 1.594s1.594-.703 1.594-1.594V8.999c0-3.578 3.063-6.453 6.687-6.453 3.641 0 6.687 2.891 6.687 6.5v2.125l-3.047.906zm8.281 3.469H30v4.156c0 3.703-3 6.703-6.703 6.703-3.687 0-6.703-2.969-6.703-6.641v-4.188l2.047.953 3.047-.906v4.219c0 .875.719 1.578 1.594 1.578s1.594-.703 1.594-1.578v-4.297z"/></symbol><symbol viewBox="0 0 24 28" id="trello" xmlns="http://www.w3.org/2000/svg"><path d="M11 21V5c0-.281-.219-.5-.5-.5H3c-.281 0-.5.219-.5.5v16c0 .281.219.5.5.5h7.5c.281 0 .5-.219.5-.5zm10.5-6V5c0-.281-.219-.5-.5-.5h-7.5c-.281 0-.5.219-.5.5v10c0 .281.219.5.5.5H21c.281 0 .5-.219.5-.5zM24 3v22c0 .547-.453 1-1 1H1c-.547 0-1-.453-1-1V3c0-.547.453-1 1-1h22c.547 0 1 .453 1 1z"/></symbol><symbol viewBox="0 0 17 28" id="tumblr" xmlns="http://www.w3.org/2000/svg"><path d="M14.75 20.766L16 24.469c-.469.703-2.594 1.5-4.5 1.531-5.672.094-7.812-4.031-7.812-6.937v-8.5H1.063V7.204C5.001 5.782 5.954 2.22 6.172.188c.016-.125.125-.187.187-.187h3.813v6.625h5.203v3.937h-5.219v8.094c0 1.094.406 2.609 2.5 2.562.688-.016 1.609-.219 2.094-.453z"/></symbol><symbol viewBox="0 0 28 28" id="twitch" xmlns="http://www.w3.org/2000/svg"><path d="M14 6.781v6.781h-2.266V6.781H14zm6.219 0v6.781h-2.266V6.781h2.266zm0 11.875l3.953-3.969V2.265H5.516v16.391h5.094v3.391l3.391-3.391h6.219zM26.437 0v15.828l-6.781 6.781h-5.094L11.171 26H7.78v-3.391H1.561V4.515L3.264-.001h23.172z"/></symbol><symbol viewBox="0 0 26 28" id="twitter" xmlns="http://www.w3.org/2000/svg"><path d="M25.312 6.375a10.85 10.85 0 0 1-2.531 2.609c.016.219.016.438.016.656 0 6.672-5.078 14.359-14.359 14.359-2.859 0-5.516-.828-7.75-2.266.406.047.797.063 1.219.063 2.359 0 4.531-.797 6.266-2.156a5.056 5.056 0 0 1-4.719-3.5c.313.047.625.078.953.078.453 0 .906-.063 1.328-.172a5.048 5.048 0 0 1-4.047-4.953v-.063a5.093 5.093 0 0 0 2.281.641 5.044 5.044 0 0 1-2.25-4.203c0-.938.25-1.797.688-2.547a14.344 14.344 0 0 0 10.406 5.281 5.708 5.708 0 0 1-.125-1.156 5.045 5.045 0 0 1 5.047-5.047 5.03 5.03 0 0 1 3.687 1.594 9.943 9.943 0 0 0 3.203-1.219 5.032 5.032 0 0 1-2.219 2.781c1.016-.109 2-.391 2.906-.781z"/></symbol><symbol viewBox="0 0 28 28" id="vimeo" xmlns="http://www.w3.org/2000/svg"><path d="M26.703 8.094c-.109 2.469-1.844 5.859-5.187 10.172C18.047 22.75 15.141 25 12.735 25c-1.484 0-2.734-1.375-3.75-4.109-.688-2.5-1.375-5.016-2.063-7.531-.75-2.734-1.578-4.094-2.453-4.094-.187 0-.844.391-1.984 1.188L1.282 8.923c1.25-1.109 2.484-2.234 3.719-3.313 1.656-1.469 2.922-2.203 3.766-2.281 1.984-.187 3.187 1.156 3.656 4.047.484 3.125.844 5.078 1.031 5.828.578 2.594 1.188 3.891 1.875 3.891.531 0 1.328-.828 2.406-2.516 1.062-1.687 1.625-2.969 1.703-3.844.141-1.453-.422-2.172-1.703-2.172-.609 0-1.234.141-1.891.406 1.25-4.094 3.641-6.078 7.172-5.969 2.609.078 3.844 1.781 3.687 5.094z"/></symbol><symbol viewBox="0 0 24 28" id="vine" xmlns="http://www.w3.org/2000/svg"><path d="M23.391 12.922v3.094c-1.094.25-2.188.359-3.094.359-2.188 4.594-6.109 8.531-7.422 9.266-.828.469-1.609.5-2.531-.047C8.735 24.625 2.641 19.625.61 3.906h4.422c1.109 9.438 3.828 14.281 6.813 17.906 1.656-1.656 3.25-3.859 4.484-6.344-2.953-1.5-4.75-4.797-4.75-8.641 0-3.891 2.234-6.828 6.062-6.828 3.719 0 5.75 2.312 5.75 6.297 0 1.484-.313 3.172-.906 4.469 0 0-2.75.547-3.766-1.219.203-.672.484-1.828.484-2.875 0-1.859-.672-2.766-1.687-2.766-1.078 0-1.828 1.016-1.828 2.969 0 3.984 2.531 6.266 5.812 6.266.578 0 1.234-.063 1.891-.219z"/></symbol><symbol viewBox="0 0 31 28" id="vk" xmlns="http://www.w3.org/2000/svg"><path d="M29.953 8.125c.234.641-.5 2.141-2.344 4.594-3.031 4.031-3.359 3.656-.859 5.984 2.406 2.234 2.906 3.313 2.984 3.453 0 0 1 1.75-1.109 1.766l-4 .063c-.859.172-2-.609-2-.609-1.5-1.031-2.906-3.703-4-3.359 0 0-1.125.359-1.094 2.766.016.516-.234.797-.234.797s-.281.297-.828.344h-1.797c-3.953.25-7.438-3.391-7.438-3.391S3.421 16.595.078 8.736c-.219-.516.016-.766.016-.766s.234-.297.891-.297l4.281-.031c.406.063.688.281.688.281s.25.172.375.5c.703 1.75 1.609 3.344 1.609 3.344 1.563 3.219 2.625 3.766 3.234 3.437 0 0 .797-.484.625-4.375-.063-1.406-.453-2.047-.453-2.047-.359-.484-1.031-.625-1.328-.672-.234-.031.156-.594.672-.844.766-.375 2.125-.391 3.734-.375 1.266.016 1.625.094 2.109.203 1.484.359.984 1.734.984 5.047 0 1.062-.203 2.547.562 3.031.328.219 1.141.031 3.141-3.375 0 0 .938-1.625 1.672-3.516.125-.344.391-.484.391-.484s.25-.141.594-.094l4.5-.031c1.359-.172 1.578.453 1.578.453z"/></symbol><symbol viewBox="0 0 26 28" id="windows" xmlns="http://www.w3.org/2000/svg"><path d="M10.656 15.719v10.172L0 24.422v-8.703h10.656zm0-11.61v10.297H0V5.578zM26 15.719V28l-14.172-1.953V15.719H26zM26 2v12.406H11.828V3.953z"/></symbol><symbol viewBox="0 0 28 28" id="wordpress" xmlns="http://www.w3.org/2000/svg"><path d="M1.984 14c0-1.734.375-3.391 1.047-4.891l5.734 15.703c-4.016-1.953-6.781-6.062-6.781-10.813zm20.125-.609c0 1.031-.422 2.219-.922 3.891l-1.188 4-4.344-12.906s.719-.047 1.375-.125c.641-.078.562-1.031-.078-.984-1.953.141-3.203.156-3.203.156s-1.172-.016-3.156-.156c-.656-.047-.734.938-.078.984.609.063 1.25.125 1.25.125l1.875 5.125-2.625 7.875-4.375-13s.719-.047 1.375-.125c.641-.078.562-1.031-.078-.984-1.937.141-3.203.156-3.203.156-.219 0-.484-.016-.766-.016a11.966 11.966 0 0 1 10.031-5.422c3.125 0 5.969 1.203 8.109 3.156h-.156c-1.172 0-2.016 1.016-2.016 2.125 0 .984.578 1.813 1.188 2.812.469.797.984 1.828.984 3.313zm-7.906 1.656l3.703 10.109a.59.59 0 0 0 .078.172c-1.25.438-2.578.688-3.984.688-1.172 0-2.312-.172-3.391-.5zm10.328-6.813A11.98 11.98 0 0 1 26.015 14c0 4.438-2.406 8.297-5.984 10.375l3.672-10.594c.609-1.75.922-3.094.922-4.312 0-.438-.031-.844-.094-1.234zM14 0c7.719 0 14 6.281 14 14s-6.281 14-14 14S0 21.719 0 14 6.281 0 14 0zm0 27.359c7.359 0 13.359-6 13.359-13.359S21.359.641 14 .641.641 6.641.641 14s6 13.359 13.359 13.359z"/></symbol><symbol viewBox="0 0 22 28" id="xing" xmlns="http://www.w3.org/2000/svg"><path d="M9.328 10.422s-.156.266-4.016 7.125c-.203.344-.469.719-1.016.719H.562c-.219 0-.391-.109-.484-.266s-.109-.359 0-.562l3.953-7c.016 0 .016 0 0-.016L1.515 6.063c-.109-.203-.125-.422-.016-.578.094-.156.281-.234.5-.234h3.734c.562 0 .844.375 1.031.703a773.586 773.586 0 0 0 2.562 4.469zM21.922.391c.109.156.109.375 0 .578l-8.25 14.594c-.016 0-.016.016 0 .016l5.25 9.609c.109.203.109.422.016.578-.109.156-.281.234-.5.234h-3.734c-.562 0-.859-.375-1.031-.703-5.297-9.703-5.297-9.719-5.297-9.719s.266-.469 8.297-14.719c.203-.359.438-.703 1-.703h3.766c.219 0 .391.078.484.234z"/></symbol><symbol viewBox="0 0 24 28" id="yelp" xmlns="http://www.w3.org/2000/svg"><path d="M12.078 20.609v1.984c-.016 4.406-.016 4.562-.094 4.766-.125.328-.406.547-.797.625-1.125.187-4.641-1.109-5.375-1.984a1.107 1.107 0 0 1-.266-.562.882.882 0 0 1 .063-.406c.078-.219.219-.391 3.359-4.109 0 0 .016 0 .938-1.094.313-.391.875-.516 1.391-.328.516.203.797.641.781 1.109zM9.75 16.688c-.031.547-.344.953-.812 1.094l-1.875.609c-4.203 1.344-4.344 1.375-4.562 1.375-.344-.016-.656-.219-.844-.562-.125-.25-.219-.672-.266-1.172-.172-1.531.031-3.828.484-4.547.219-.344.531-.516.875-.5.234 0 .422.094 4.953 1.937 0 0-.016.016 1.313.531.469.187.766.672.734 1.234zm12.906 4.64c-.156 1.125-2.484 4.078-3.547 4.5-.359.141-.719.109-.984-.109-.187-.141-.375-.422-2.875-4.484l-.734-1.203c-.281-.438-.234-1 .125-1.437.344-.422.844-.562 1.297-.406 0 0 .016.016 1.859.625 4.203 1.375 4.344 1.422 4.516 1.563.281.219.406.547.344.953zm-10.5-9.875c.078 1.625-.609 1.828-.844 1.906-.219.063-.906.266-1.781-1.109-5.75-9.078-5.906-9.344-5.906-9.344-.078-.328.016-.688.297-.969.859-.891 5.531-2.203 6.75-1.891.391.094.672.344.766.703.063.391.625 8.813.719 10.703zM22.5 13.141c.031.391-.109.719-.406.922-.187.125-.375.187-5.141 1.344-.766.172-1.188.281-1.422.359l.016-.031c-.469.125-1-.094-1.297-.562s-.281-.984 0-1.359c0 0 .016-.016 1.172-1.594 2.562-3.5 2.688-3.672 2.875-3.797.297-.203.656-.203 1.016-.031 1.016.484 3.063 3.531 3.187 4.703v.047z"/></symbol><symbol viewBox="0 0 24 28" id="youtube" xmlns="http://www.w3.org/2000/svg"><path d="M15.172 19.437v3.297c0 .703-.203 1.047-.609 1.047-.234 0-.469-.109-.703-.344v-4.703c.234-.234.469-.344.703-.344.406 0 .609.359.609 1.047zm5.281.016v.719h-1.406v-.719c0-.703.234-1.062.703-1.062s.703.359.703 1.062zM5.359 16.047h1.672v-1.469H2.156v1.469h1.641v8.891H5.36v-8.891zm4.5 8.891h1.391v-7.719H9.859v5.906c-.313.438-.609.656-.891.656-.187 0-.297-.109-.328-.328-.016-.047-.016-.219-.016-.547v-5.688H7.233v6.109c0 .547.047.906.125 1.141.125.391.453.578.906.578.5 0 1.031-.313 1.594-.953v.844zm6.703-2.313v-3.078c0-.719-.031-1.234-.141-1.547-.172-.578-.562-.875-1.109-.875-.516 0-1 .281-1.453.844v-3.391h-1.391v10.359h1.391v-.75c.469.578.953.859 1.453.859.547 0 .938-.297 1.109-.859.109-.328.141-.844.141-1.563zm5.282-.156v-.203h-1.422c0 .562-.016.875-.031.953-.078.375-.281.562-.625.562-.484 0-.719-.359-.719-1.078v-1.359h2.797v-1.609c0-.828-.141-1.422-.422-1.813-.406-.531-.953-.797-1.656-.797-.719 0-1.266.266-1.672.797-.297.391-.438.984-.438 1.813v2.703c0 .828.156 1.437.453 1.813.406.531.953.797 1.687.797s1.313-.281 1.687-.828a1.8 1.8 0 0 0 .328-.844c.031-.141.031-.453.031-.906zm-9.5-14.266V4.922c0-.719-.203-1.078-.672-1.078-.453 0-.672.359-.672 1.078v3.281c0 .719.219 1.094.672 1.094.469 0 .672-.375.672-1.094zm11.234 11.735c0 1.797-.016 3.719-.406 5.469-.297 1.234-1.297 2.141-2.5 2.266-2.875.328-5.781.328-8.672.328s-5.797 0-8.672-.328c-1.203-.125-2.219-1.031-2.5-2.266-.406-1.75-.406-3.672-.406-5.469 0-1.813.016-3.719.406-5.469.297-1.234 1.297-2.141 2.516-2.281 2.859-.313 5.766-.313 8.656-.313s5.797 0 8.672.313c1.203.141 2.219 1.047 2.5 2.281.406 1.75.406 3.656.406 5.469zM7.984 0h1.594L7.687 6.234v4.234H6.124V6.234c-.141-.766-.453-1.859-.953-3.313-.344-.969-.688-1.953-1.016-2.922h1.656L6.92 4.108zm5.782 5.203v2.734c0 .828-.141 1.453-.438 1.844-.391.531-.938.797-1.656.797-.703 0-1.25-.266-1.641-.797-.297-.406-.438-1.016-.438-1.844V5.203c0-.828.141-1.437.438-1.828.391-.531.938-.797 1.641-.797.719 0 1.266.266 1.656.797.297.391.438 1 .438 1.828zM19 2.672v7.797h-1.422V9.61c-.562.656-1.094.969-1.609.969-.453 0-.781-.187-.922-.578-.078-.234-.125-.609-.125-1.172V2.673h1.422v5.734c0 .328 0 .516.016.547.031.219.141.344.328.344.281 0 .578-.219.891-.672V2.673h1.422z"/></symbol></svg>